<svg width="103" height="103" viewBox="0 0 103 103" fill="none" xmlns="http://www.w3.org/2000/svg">
<g clip-path="url(#clip0_280_27334)">
<path d="M47.8899 59.5808C49.978 59.5808 51.2175 57.247 50.0455 55.5189C45.3732 48.6301 35.0184 35.8445 25.1479 40.5935C16.9345 44.5452 9.67918 50.8668 5.33602 55.1183C3.66875 56.7503 4.82422 59.5808 7.15727 59.5808H47.8899Z" fill="#FDDD45"/>
<path d="M47.8901 59.5806H39.0804C41.1677 59.5806 42.4072 57.2474 41.235 55.5194C37.9951 50.7399 32.0203 43.1256 25.3684 40.4923C35.1734 36.0342 45.4078 48.6806 50.0462 55.5194C51.2168 57.2474 49.9773 59.5806 47.8901 59.5806Z" fill="#FDC83A"/>
<path d="M66.7107 88.783C65.4179 87.7553 64.8392 86.0776 65.1229 84.4508C66.2987 77.7091 66.5445 70.6505 66.2921 63.9907H3.93484C3.68243 70.6505 3.92826 77.7091 5.10405 84.4508C5.38774 86.0776 4.80901 87.7553 3.51628 88.783C2.24586 89.7931 0.796344 91.5978 0.263633 94.7357C0.0291527 96.1161 1.09358 97.3771 2.49369 97.3771H35.16L51.4043 96.351L67.7333 97.3771C69.1334 97.3771 70.1978 96.1161 69.9633 94.7357C69.4306 91.5978 67.9811 89.7931 66.7107 88.783Z" fill="#DC7F69"/>
<path d="M69.9634 94.7357C69.4305 91.5978 67.9812 89.7931 66.7108 88.783C65.418 87.7553 64.8393 86.0776 65.123 84.4508C66.2988 77.7091 66.5446 70.6505 66.2922 63.9907H3.93475C3.81761 67.0807 3.80964 70.2567 3.95029 73.4468H28.76C28.9178 77.1592 29.2776 80.8926 29.9127 84.5335C30.1946 86.15 29.6194 87.8168 28.3351 88.838C27.0728 89.8415 25.6327 91.6347 25.1031 94.7524C24.8702 96.1241 25.9277 97.3769 27.3188 97.3769H35.1601L51.4044 96.3508L67.7334 97.3769C69.1333 97.3769 70.1977 96.1159 69.9634 94.7357Z" fill="#D46A50"/>
<path d="M67.5992 67.2127H2.62763C1.37893 67.2127 0.366699 66.2005 0.366699 64.9518V59.0454C0.366699 57.7967 1.37893 56.7844 2.62763 56.7844H67.5992C68.8479 56.7844 69.8602 57.7967 69.8602 59.0454V64.9518C69.8604 66.2003 68.8479 67.2127 67.5992 67.2127Z" fill="#E39382"/>
<path d="M69.86 59.0455V64.952C69.86 66.1999 68.8481 67.2137 67.6004 67.2137H27.8491C27.9005 63.618 28.1097 60.1046 28.4135 56.7838H67.6004C68.8481 56.7838 69.86 57.7976 69.86 59.0455Z" fill="#DC7F69"/>
<path d="M69.8592 59.0457V64.9517C69.8592 66.2002 68.8488 67.2126 67.5983 67.2126H59.7302C60.9787 67.2126 61.9911 66.2002 61.9911 64.9517V59.0457C61.9911 57.7972 60.9787 56.7847 59.7302 56.7847H67.5983C68.8486 56.7847 69.8592 57.7974 69.8592 59.0457Z" fill="#E39382"/>
<path d="M90.8257 27.8167C93.1886 27.8167 94.5913 25.1757 93.2649 23.2201C87.9776 15.4247 76.2598 0.955642 65.09 6.32997C55.7954 10.8018 47.585 17.9556 42.6701 22.7669C40.7835 24.6137 42.091 27.8169 44.731 27.8169L90.8257 27.8167Z" fill="#FDDD45"/>
<path d="M90.8259 27.8164H80.8566C83.2185 27.8164 84.6212 25.1761 83.2946 23.2204C79.6282 17.8118 72.8671 9.19502 65.3394 6.2153C76.4349 1.17029 88.0167 15.4814 93.2657 23.2204C94.5905 25.1761 93.1878 27.8164 90.8259 27.8164Z" fill="#FDC83A"/>
<path d="M97.3889 84.5334C101.529 60.7961 94.0695 33.1049 94.0695 33.1049H41.0732C41.0732 33.1049 33.6138 60.7959 37.7538 84.5334C38.0357 86.1498 37.4605 87.8167 36.1762 88.8379C34.9139 89.8414 33.4738 91.6345 32.9443 94.7523C32.7114 96.1237 33.7688 97.3768 35.16 97.3768H99.9826C101.374 97.3768 102.431 96.1239 102.198 94.7523C101.669 91.6345 100.229 89.8414 98.9663 88.8379C97.682 87.8167 97.107 86.1498 97.3889 84.5334Z" fill="#E39382"/>
<path d="M41.0731 33.1052C41.0731 33.1052 40.124 36.6336 39.0909 42.2438H88.2334C90.0963 52.3623 92.2321 69.2648 89.5695 84.5341C89.2882 86.1496 89.8626 87.8178 91.1479 88.8376C92.41 89.8417 93.8495 91.6351 94.3791 94.7526C94.6136 96.1241 93.5547 97.3762 92.1638 97.3762H99.9835C101.374 97.3762 102.431 96.1239 102.199 94.7526C101.669 91.6349 100.23 89.8417 98.9657 88.8376C97.6823 87.8178 97.106 86.1496 97.3893 84.5341C101.529 60.7954 94.0703 33.1048 94.0703 33.1048L41.0731 33.1052Z" fill="#DC7F69"/>
<path d="M96.1361 35.6385H39.0065C37.7658 35.6385 36.7599 34.6326 36.7599 33.3919V27.5231C36.7599 26.2823 37.7658 25.2765 39.0065 25.2765H96.1361C97.3768 25.2765 98.3827 26.2823 98.3827 27.5231V33.3919C98.3827 34.6328 97.3768 35.6385 96.1361 35.6385Z" fill="#E9A999"/>
<path d="M98.3817 27.5236V33.3918C98.3817 34.6324 97.3776 35.6384 96.1351 35.6384H88.3171C89.5577 35.6384 90.5637 34.6324 90.5637 33.3918V27.5236C90.5637 26.2831 89.5577 25.277 88.3171 25.277H96.1351C97.3776 25.2772 98.3817 26.2833 98.3817 27.5236Z" fill="#E39382"/>
<path d="M50.6794 82.9399C50.2855 82.9399 49.8915 82.7895 49.5909 82.4891C48.9898 81.8878 48.9898 80.9134 49.5909 80.312L76.0762 53.8267C76.6774 53.2258 77.6518 53.2258 78.2533 53.8267C78.8543 54.4279 78.8543 55.4023 78.2533 56.0037L51.7679 82.4891C51.4673 82.7895 51.0732 82.9399 50.6794 82.9399Z" fill="#FDDD45"/>
<path d="M70.341 75.5086C70.4685 75.2516 70.4685 74.948 70.341 74.691C69.2066 72.4037 66.8485 70.8313 64.1223 70.8313C61.3962 70.8313 59.0379 72.4037 57.9037 74.691C57.7762 74.948 57.7762 75.2516 57.9037 75.5086C59.0381 77.7958 61.3962 79.3682 64.1223 79.3682C66.8485 79.3682 69.2068 77.7958 70.341 75.5086Z" fill="#FDC83A"/>
<path d="M56.5789 61.7462C56.8359 61.6187 57.1395 61.6187 57.3965 61.7462C59.6837 62.8806 61.2562 65.2387 61.2562 67.9648C61.2562 70.6909 59.6835 73.0493 57.3965 74.1834C57.1395 74.3109 56.8359 74.3109 56.5789 74.1834C54.2917 73.0491 52.7192 70.6909 52.7192 67.9648C52.7192 65.2387 54.2917 62.8806 56.5789 61.7462Z" fill="#FDC83A"/>
<path d="M79.9024 65.947C80.0299 65.69 80.0299 65.3864 79.9024 65.1294C78.768 62.8421 76.4099 61.2697 73.6837 61.2697C70.9576 61.2697 68.5993 62.8423 67.4651 65.1294C67.3376 65.3864 67.3376 65.69 67.4651 65.947C68.5995 68.2342 70.9576 69.8066 73.6837 69.8066C76.4099 69.8066 78.768 68.2342 79.9024 65.947Z" fill="#FDC83A"/>
<path d="M66.1403 52.1848C66.3973 52.0573 66.7009 52.0573 66.9579 52.1848C69.2451 53.3191 70.8176 55.6773 70.8176 58.4034C70.8176 61.1295 69.2449 63.4879 66.9579 64.622C66.7009 64.7495 66.3973 64.7495 66.1403 64.622C63.8531 63.4877 62.2806 61.1295 62.2806 58.4034C62.2806 55.6773 63.8531 53.3191 66.1403 52.1848Z" fill="#FDC83A"/>
<path d="M83.5217 47.9807C83.7934 48.0723 84.0081 48.2871 84.0998 48.5588C84.915 50.9781 84.3594 53.7576 82.4317 55.6852C80.5041 57.6129 77.7246 58.1685 75.3053 57.3533C75.0335 57.2617 74.8188 57.0469 74.7271 56.7752C73.9119 54.3559 74.4676 51.5763 76.3952 49.6487C78.3228 47.7211 81.1021 47.1652 83.5217 47.9807Z" fill="#FDC83A"/>
<path d="M100.439 90.3779H84.2711C81.9849 90.3779 80.1254 88.5164 80.1254 86.2302C80.1254 83.9459 81.9847 82.0844 84.2711 82.0844C85.1208 82.0844 85.8103 82.7741 85.8103 83.6236C85.8103 84.4752 85.1208 85.1627 84.2711 85.1627C83.682 85.1627 83.2039 85.6431 83.2039 86.23C83.2039 86.819 83.682 87.2992 84.2711 87.2992H97.7528C98.03 87.8881 98.4383 88.4176 98.9659 88.8383C99.45 89.2246 99.963 89.7274 100.439 90.3779Z" fill="#D46A50"/>
<path d="M73.0782 90.3774H64.1223C63.272 90.3774 62.5831 89.6883 62.5831 88.8382C62.5831 87.9882 63.2722 87.2991 64.1223 87.2991H73.0782C73.9284 87.2991 74.6173 87.9882 74.6173 88.8382C74.6173 89.6883 73.9284 90.3774 73.0782 90.3774Z" fill="#D46A50"/>
<path d="M67.2001 13.9384C66.3498 13.9384 65.6609 13.2565 65.6609 12.4064V12.3923C65.6609 11.542 66.35 10.8531 67.2001 10.8531C68.0504 10.8531 68.7393 11.5422 68.7393 12.3923C68.7393 13.2423 68.0504 13.9384 67.2001 13.9384Z" fill="#FDC83A"/>
<path d="M71.3119 16.9172C70.4617 16.9172 69.7728 16.235 69.7728 15.385V15.3708C69.7728 14.5206 70.4619 13.8317 71.3119 13.8317C72.162 13.8317 72.8511 14.5208 72.8511 15.3708C72.8511 16.2209 72.162 16.9172 71.3119 16.9172Z" fill="#FDC83A"/>
<path d="M56.1275 21.2397C55.2773 21.2397 54.5884 20.5576 54.5884 19.7075V19.6934C54.5884 18.8431 55.2775 18.1542 56.1275 18.1542C56.9776 18.1542 57.6667 18.8433 57.6667 19.6934C57.6667 20.5435 56.9778 21.2397 56.1275 21.2397Z" fill="#FDC83A"/>
</g>
<defs>
<clipPath id="clip0_280_27334">
<rect width="102" height="102" fill="white" transform="translate(0.230957 0.269043)"/>
</clipPath>
</defs>
</svg>
