<svg width="83" height="82" viewBox="0 0 83 82" fill="none" xmlns="http://www.w3.org/2000/svg">
<g clip-path="url(#clip0_280_27582)">
<path d="M22.1607 63.4536C24.1882 49.8152 13.867 53.9199 7.39266 60.744C5.56935 65.985 4.20391 69.8376 4.20391 69.8376C3.71007 71.1589 2.61935 72.5587 0.939941 73.2635C2.37897 73.7655 4.28731 73.3894 5.21777 72.6895C5.05098 73.9601 4.56531 75.0132 3.81636 75.8881C5.57426 75.6166 7.09341 74.9478 8.40489 73.9274C8.34275 75.1309 8.04186 76.1791 7.46462 77.0507C9.12931 76.8954 10.5945 76.1088 11.9436 74.9478C11.8765 76.0352 11.7179 77.0017 11.3843 77.7359C13.0899 77.6852 15.2484 76.655 16.5648 75.4318C22.6414 74.5653 24.0348 70.1419 22.1607 63.4536Z" fill="#E0AC69"/>
<path d="M37.5813 47.2481C37.3038 43.9966 34.7881 43.4762 31.8105 43.9187C22.7758 38.3845 16.7208 39.8627 12.5292 45.7257C10.8628 50.7149 8.95776 56.2404 7.39282 60.7439C8.88908 60.3384 10.194 59.3736 11.046 57.982C10.786 59.246 10.9037 60.5117 11.3616 61.779C12.7794 61.2933 13.7785 60.3367 14.4228 58.9795C14.449 60.2484 14.7597 61.3817 15.4121 62.3563C16.5977 61.7071 17.43 60.6916 18.0056 59.4161C17.9713 60.5477 18.2918 61.5566 18.977 62.438C20.1609 61.7774 20.9998 60.8878 21.4855 59.7627C21.3923 61.1674 21.5983 62.3595 22.1608 63.4535L37.5813 51.8268C39.747 50.406 39.634 48.8742 37.5813 47.2481Z" fill="#F1C27D"/>
<path d="M22.6071 31.5137C18.6073 33.3796 15.4365 36.8414 14.0106 41.2321C13.5527 42.6449 13.0523 44.1592 12.5291 45.7257C13.9468 45.4428 15.1406 44.3652 16.022 43.1208C15.8764 44.2491 16.1364 45.2221 16.8559 46.0234C18.0055 45.6424 18.851 44.9588 19.4168 43.994C19.5852 45.0913 20.0398 46.007 20.9572 46.6268C22.213 46.1198 23.0094 45.2205 23.4231 43.994C23.6455 45.0864 24.3127 45.9547 25.3298 46.6431C26.3241 46.0986 26.9798 45.2025 27.333 43.994C27.5358 45.1927 28.288 46.1575 29.4768 46.9342C30.6673 46.1575 31.6076 45.1174 31.8104 43.9188C32.419 36.0936 28.8765 32.435 22.6071 31.5137Z" fill="#FFDBAC"/>
<path d="M65.7175 61.6352C66.9806 60.463 67.8682 60.7361 68.4419 62.2173L65.9563 73.8636C63.5425 73.4041 62.7467 71.9558 64.1084 69.1688L65.7175 61.6352Z" fill="#655F68"/>
<path d="M67.7908 81.1143H56.6973V77.0246C59.4885 74.3884 63.72 74.2551 66.4401 75.4269L66.4434 75.4253C66.965 77.193 67.418 79.0866 67.7908 81.1143Z" fill="#F7B6AD"/>
<path d="M26.3143 77.0245V81.1143H15.2207C15.5935 79.0882 16.0465 77.1962 16.5649 75.4318C16.5665 75.4302 16.5698 75.4285 16.5714 75.4269C19.8416 73.6884 24.1176 73.9205 26.3143 77.0245Z" fill="#F7B6AD"/>
<path d="M65.9561 73.8636C65.3985 72.1793 64.7771 70.616 64.1083 69.1688C61.0896 62.6425 57.0669 58.4235 53.2453 55.7172C51.498 58.4408 51.3984 61.0278 53.2453 63.4536L56.6973 66.4821C55.0231 70.2155 54.7818 73.7612 56.6973 77.0246C59.9989 77.5348 64.1459 76.8807 66.4402 75.4269L66.4434 75.4253C66.2864 74.8922 66.1246 74.3722 65.9561 73.8636Z" fill="#E15C63"/>
<path d="M22.1608 63.4536C19.9695 66.6031 18.0089 70.5326 16.5649 75.4318C16.5666 75.4302 16.5698 75.4285 16.5715 75.4269C18.8657 76.8807 23.0128 77.5348 26.3143 77.0246L28.3597 67.8589L29.7664 63.4536C32.6223 61.0851 32.3614 58.4871 29.7664 55.7172C27.2006 57.5339 24.545 60.0326 22.1608 63.4536Z" fill="#E15C63"/>
<path d="M48.0469 52.7917C49.8119 56.665 50.2099 60.2908 48.0469 63.4536C44.279 67.0523 39.8644 66.7254 34.9649 63.4536C32.4288 60.2908 32.8955 56.665 34.9649 52.7917C35.9084 52.3862 36.7882 52.0706 37.5813 51.8269C37.5813 51.8269 38.3744 55.1007 41.5059 55.1007C44.6374 55.1007 45.4305 51.8269 45.4305 51.8269C46.2236 52.0706 47.1034 52.3862 48.0469 52.7917Z" fill="#E15C63"/>
<path d="M54.3002 3.58192C51.9356 0.811797 45.4305 0.00561523 41.5059 0.00561523C37.5813 0.00561523 31.0762 0.811797 28.7117 3.58192C26.3471 6.35041 23.7405 14.3812 23.7405 14.3812H59.2713C59.2713 14.3812 56.6647 6.35041 54.3002 3.58192Z" fill="#F1C27D"/>
<path d="M59.2711 14.3812C54.3245 13.1809 48.1727 12.4695 41.5057 12.4695C34.8388 12.4695 28.6869 13.1809 23.7403 14.3812C16.5631 16.1211 11.9207 18.8912 11.9207 22.0096C11.9207 25.0823 16.4258 27.8164 23.423 29.5596L59.5933 29.5645L59.6015 29.558C66.5905 27.8132 71.0908 25.0806 71.0908 22.0096C71.0908 18.8912 66.4483 16.1211 59.2711 14.3812Z" fill="#E0AC69"/>
<path d="M59.5934 29.5645C60.496 30.7533 60.7544 32.5537 60.1314 34.2626C59.3661 36.3573 57.5215 37.6459 55.7571 37.4333H55.7554C53.2597 34.5401 53.2854 31.2321 57.5706 28.2792C57.7684 28.3168 57.9549 28.3675 58.1478 28.446C58.73 28.6798 59.2173 29.069 59.5934 29.5645Z" fill="#DFA3A5"/>
<path d="M27.2562 37.4333H27.2546C26.5089 37.5233 25.7501 37.345 25.0633 36.9526V36.9509C24.2195 36.4685 23.4853 35.6591 23.0258 34.6207C22.9735 34.5046 22.9244 34.3852 22.8803 34.2626C22.5418 33.3354 22.4633 32.382 22.6072 31.5137C22.7282 30.7778 23.0078 30.1041 23.4232 29.5596C23.7977 29.0657 24.285 28.6782 24.8638 28.446C25.0568 28.3675 25.2432 28.3168 25.4411 28.2792C28.519 31.7677 28.7404 34.9929 27.2562 37.4333Z" fill="#DFA3A5"/>
<path d="M54.4913 20.9532C51.1439 19.9999 46.6176 19.0956 41.5057 19.0956C36.3939 19.0956 31.8675 19.9999 28.5202 20.9532C26.6643 23.0948 25.381 25.3897 25.441 28.2792C25.7828 31.7819 26.4172 35.005 27.2561 37.4333C27.611 38.4619 28.0034 39.3482 28.4253 40.053C29.1514 41.2615 30.3239 42.6498 31.8103 43.9188C33.421 45.294 35.3997 46.5286 37.5811 47.2482V51.8269C37.5811 51.8269 38.3742 55.1007 41.5057 55.1007C44.6373 55.1007 45.4304 51.8269 45.4304 51.8269V47.2482C49.6248 45.8664 53.0752 42.5713 54.5862 40.053C55.0081 39.3482 55.4005 38.4619 55.7554 37.4333C56.5943 35.005 57.2287 31.7819 57.5705 28.2792C57.4508 26.4228 56.8543 23.9798 54.4913 20.9532Z" fill="#F7B6AD"/>
<path d="M80.958 36.9641C81.7103 37.1243 82.1894 37.8651 82.0291 38.6173L79.4651 50.6266C78.4872 55.2102 74.435 58.3483 69.9299 58.345L69.0746 62.3514L68.4418 62.2173L65.7175 61.6352L65.0846 61.5011L65.9399 57.4931C61.8255 55.6567 59.4086 51.1385 60.3882 46.5548L62.9506 34.5439C63.1125 33.7917 63.8516 33.3125 64.6055 33.4728C65.3577 33.633 65.8368 34.3738 65.6766 35.126L63.1174 47.1108C63.0961 47.2089 63.0863 47.3054 63.0863 47.4019C63.0863 48.0462 63.536 48.6251 64.1901 48.7641C64.9423 48.926 65.6831 48.4452 65.8434 47.693L68.4025 35.7082C68.5628 34.956 69.3036 34.4752 70.0558 34.6371C70.808 34.7973 71.2888 35.5381 71.1269 36.2903L68.5693 48.2751C68.4091 49.0273 68.8882 49.7681 69.6404 49.9284C70.3927 50.0886 71.1334 49.6095 71.2937 48.8556L73.8529 36.8725C74.0131 36.1186 74.7539 35.6395 75.5061 35.7998C76.26 35.96 76.7391 36.7008 76.5788 37.453L74.0197 49.4378C73.9984 49.5359 73.9886 49.634 73.9886 49.7305C73.9886 50.3748 74.4366 50.952 75.0924 51.0927C75.8446 51.2529 76.5854 50.7722 76.7456 50.0199L79.3032 38.0351C79.4651 37.2829 80.2042 36.8038 80.958 36.9641Z" fill="#CDC7B9"/>
<path d="M53.6688 63.4536H53.2452H48.0468H34.9647H29.7662H29.3427C27.6698 63.4536 26.3142 64.8092 26.3142 66.482V77.0245V81.1143H56.6973V77.0245V66.482C56.6973 64.8092 55.3416 63.4536 53.6688 63.4536Z" fill="#1498B7"/>
<path d="M48.0469 63.4536V52.7917C49.6462 53.4801 51.422 54.4253 53.2454 55.7172V63.4536V68.724C53.2454 70.1597 52.0811 71.3224 50.6469 71.3224C49.9291 71.3224 49.2799 71.0313 48.8089 70.562C48.338 70.0911 48.0469 69.4419 48.0469 68.724V63.4536Z" fill="#1EA6BC"/>
<path d="M29.7664 63.4536V55.7172C29.9642 55.5765 30.1621 55.4392 30.36 55.3083C31.7532 54.3713 33.1121 53.6322 34.3745 53.055C34.574 52.9634 34.7702 52.8751 34.9648 52.7917V63.4536V68.724C34.9648 69.4419 34.6738 70.0911 34.2028 70.562C33.7319 71.0313 33.0827 71.3224 32.3648 71.3224C30.9307 71.3224 29.7664 70.1597 29.7664 68.724V63.4536Z" fill="#1EA6BC"/>
<path d="M48.0484 29.5874C48.7709 29.5874 49.3566 29.0017 49.3566 28.2792C49.3566 27.5567 48.7709 26.971 48.0484 26.971C47.3259 26.971 46.7402 27.5567 46.7402 28.2792C46.7402 29.0017 47.3259 29.5874 48.0484 29.5874Z" fill="#543927"/>
<path d="M46.1778 32.1613L48.0469 37.4366L44.9873 35.8946L43.8786 38.5371L41.5059 36.0434L39.1331 38.5371L38.0244 35.8946L34.9648 37.4366L36.8339 32.1613C37.5355 30.1826 39.4062 28.8597 41.5059 28.8597C42.5557 28.8597 43.5483 29.19 44.3659 29.7689C45.1836 30.3461 45.8262 31.1719 46.1778 32.1613Z" fill="#604533"/>
<path d="M34.9664 29.5874C35.6889 29.5874 36.2746 29.0017 36.2746 28.2792C36.2746 27.5567 35.6889 26.971 34.9664 26.971C34.2439 26.971 33.6582 27.5567 33.6582 28.2792C33.6582 29.0017 34.2439 29.5874 34.9664 29.5874Z" fill="#543927"/>
<path d="M59.2517 22.5885C59.2206 24.7879 58.6614 26.6848 57.5706 28.2792C55.8438 26.4232 54.8169 23.9801 54.4915 20.9532C56.5895 21.5501 58.2247 22.165 59.2517 22.5885Z" fill="#604533"/>
<path d="M23.76 22.5885C24.787 22.165 26.4222 21.5501 28.5202 20.9532C28.1948 23.9801 27.1679 26.4232 25.4411 28.2792C24.3503 26.6848 23.7911 24.7879 23.76 22.5885Z" fill="#604533"/>
<path d="M26.3143 77.0245V81.1143H19.7324C21.0913 81.1143 22.0349 79.4022 22.6873 77.1505C23.9236 77.2388 25.1696 77.2011 26.3143 77.0245Z" fill="#DFA3A5"/>
<path d="M26.3143 67.6032V77.0246C25.1696 77.2012 23.9235 77.2388 22.6873 77.1505C23.6279 73.9006 23.9642 69.5251 24.0736 67.5401C24.1063 66.9463 24.5984 66.4821 25.193 66.4821C25.8122 66.4821 26.3143 66.9841 26.3143 67.6032Z" fill="#D14B62"/>
<path d="M56.6973 77.0245V81.1143H63.2792C61.9203 81.1143 60.9767 79.4022 60.3243 77.1505C59.088 77.2388 57.8419 77.2011 56.6973 77.0245Z" fill="#DFA3A5"/>
<path d="M56.6973 67.6032V77.0246C57.8419 77.2012 59.088 77.2388 60.3243 77.1505C59.3837 73.9006 59.0473 69.5251 58.9379 67.5401C58.9052 66.9463 58.4131 66.4821 57.8186 66.4821C57.1993 66.4821 56.6973 66.9841 56.6973 67.6032Z" fill="#D14B62"/>
<path d="M45.4305 47.2482V50.2129C41.1707 51.4099 37.5813 49.2644 37.5813 49.2644V47.2482C38.8339 47.6603 40.1519 47.9023 41.5059 47.9023C42.8599 47.9023 44.1779 47.6603 45.4305 47.2482Z" fill="#DFA3A5"/>
<path d="M50.5693 22.5379C48.9361 21.387 46.7735 21.7517 46.6823 21.7677C46.3264 21.8305 46.089 22.1697 46.1516 22.5255C46.2143 22.8813 46.5529 23.1183 46.9094 23.0561C46.9262 23.0532 48.6416 22.78 49.8154 23.6072C49.93 23.688 50.0615 23.7268 50.1917 23.7268C50.3972 23.7268 50.5995 23.6301 50.7269 23.4494C50.9351 23.1541 50.8646 22.7459 50.5693 22.5379Z" fill="#604533"/>
<path d="M36.3326 21.7677C36.2413 21.7517 34.0787 21.387 32.4457 22.5379C32.1504 22.7461 32.0799 23.1543 32.2879 23.4494C32.4153 23.6301 32.6178 23.7268 32.8232 23.7268C32.9533 23.7268 33.085 23.688 33.1994 23.6072C34.3773 22.7768 36.078 23.0517 36.1069 23.0563C36.4613 23.1186 36.8004 22.8807 36.8631 22.5253C36.9258 22.1697 36.6884 21.8304 36.3326 21.7677Z" fill="#604533"/>
<path d="M60.7613 22.5393C60.743 22.5303 60.3031 22.3152 59.501 21.9839C58.4837 21.5643 56.8198 20.9357 54.6706 20.3243C50.2845 19.0751 45.8553 18.4417 41.5058 18.4417C37.1564 18.4417 32.7271 19.0751 28.3412 20.3243C26.1916 20.9357 24.5279 21.5643 23.5103 21.9841C22.7085 22.3154 22.2687 22.5304 22.2503 22.5394C21.9262 22.6986 21.7921 23.0902 21.9513 23.4145C22.1102 23.7389 22.5022 23.8728 22.8263 23.714C22.8305 23.7121 23.2516 23.5065 24.0096 23.1934C24.9953 22.7867 26.6091 22.1772 28.6995 21.5825C32.969 20.3663 37.2777 19.7499 41.5058 19.7499C45.7339 19.7499 50.0427 20.3665 54.3123 21.5825C56.4024 22.1771 58.0162 22.7867 59.0018 23.1932C59.7602 23.5065 60.1811 23.7121 60.1854 23.714C60.2777 23.7593 60.3759 23.7809 60.4725 23.7809C60.7144 23.7809 60.9467 23.6463 61.0604 23.4145C61.2195 23.09 61.0854 22.6982 60.7613 22.5393Z" fill="#CC9A62"/>
<path d="M30.4169 49.6871C30.3786 49.3279 30.0557 49.0687 29.6969 49.1063C29.3378 49.1447 29.0778 49.4672 29.116 49.8263L29.4128 52.6021C29.4488 52.9377 29.7324 53.1867 30.0625 53.1867C30.0859 53.1867 30.1093 53.1854 30.133 53.183C30.4921 53.1446 30.7521 52.8221 30.7139 52.463L30.4169 49.6871Z" fill="#E0AC69"/>
<path d="M20.5171 36.2194C19.2802 37.6903 18.2889 39.3332 17.5712 41.1022C17.4353 41.437 17.5965 41.8185 17.9312 41.9542C18.0119 41.9869 18.0951 42.0023 18.177 42.0023C18.4354 42.0023 18.6802 41.8481 18.7832 41.594C19.4494 39.952 20.3696 38.427 21.5183 37.061C21.7509 36.7847 21.7152 36.3719 21.4387 36.1394C21.1622 35.907 20.7493 35.9427 20.5171 36.2194Z" fill="#F1C27D"/>
<path d="M23.8457 42.0024C24.1517 42.0024 24.4251 41.7867 24.4867 41.4752C24.682 40.4892 24.916 39.5412 25.1819 38.6577C25.286 38.3118 25.09 37.947 24.7441 37.8428C24.3983 37.7387 24.0331 37.9347 23.9293 38.2806C23.6511 39.2043 23.407 40.1937 23.2035 41.2209C23.1332 41.5753 23.3636 41.9195 23.718 41.9897C23.7608 41.9982 23.8037 42.0024 23.8457 42.0024Z" fill="#F1C27D"/>
<path d="M25.5659 49.1146C25.2109 49.0457 24.8678 49.2773 24.7989 49.6318L23.4795 56.4165C23.4104 56.771 23.642 57.1146 23.9967 57.1834C24.0389 57.1916 24.0809 57.1957 24.1223 57.1957C24.4292 57.1957 24.7029 56.9787 24.7638 56.6664L26.0833 49.8817C26.1519 49.5268 25.9204 49.1834 25.5659 49.1146Z" fill="#E0AC69"/>
<path d="M20.4099 48.9011C20.0582 48.8257 19.7092 49.051 19.634 49.4046L18.2015 56.1304C18.1263 56.4838 18.3516 56.8311 18.705 56.9063C18.7508 56.9161 18.7967 56.9209 18.8419 56.9209C19.1441 56.9209 19.4155 56.7102 19.4809 56.4028L20.9134 49.677C20.9886 49.3236 20.7633 48.9763 20.4099 48.9011Z" fill="#E0AC69"/>
<path d="M15.4648 48.627C15.1165 48.5282 14.7554 48.7302 14.657 49.0777L12.9252 55.1772C12.8265 55.5247 13.0282 55.8864 13.3757 55.985C13.4354 56.002 13.4956 56.01 13.5548 56.01C13.8398 56.01 14.1021 55.8223 14.1837 55.5343L15.9155 49.4348C16.0139 49.0873 15.8123 48.7258 15.4648 48.627Z" fill="#E0AC69"/>
<path d="M34.5734 49.5694C34.5258 49.2113 34.1968 48.9588 33.8391 49.0068C33.481 49.0543 33.2292 49.383 33.2765 49.7411L33.5052 51.4702C33.5489 51.7992 33.8298 52.0386 34.1529 52.0386C34.1816 52.0386 34.2105 52.0367 34.2395 52.0329C34.5976 51.9855 34.8494 51.6568 34.8021 51.2987L34.5734 49.5694Z" fill="#E0AC69"/>
<path d="M11.0103 64.3374C10.6795 64.1925 10.2937 64.3436 10.1489 64.6746L7.59622 70.5108C7.4515 70.8418 7.60243 71.2274 7.93357 71.3722C8.01877 71.4097 8.10772 71.4272 8.19537 71.4272C8.44737 71.4272 8.68759 71.2807 8.79502 71.0351L11.3477 65.1988C11.4922 64.8679 11.3413 64.4823 11.0103 64.3374Z" fill="#CC9B66"/>
<path d="M15.428 64.6744C15.0859 64.5603 14.715 64.7446 14.6001 65.0873L12.4187 71.6104C12.3042 71.9529 12.4891 72.3235 12.8316 72.4381C12.9004 72.4612 12.9704 72.4721 13.0392 72.4721C13.3128 72.4721 13.5677 72.2991 13.6595 72.0254L15.8409 65.5023C15.9555 65.1596 15.7706 64.789 15.428 64.6744Z" fill="#CC9B66"/>
</g>
<defs>
<clipPath id="clip0_280_27582">
<rect width="81.12" height="81.12" fill="white" transform="translate(0.939941)"/>
</clipPath>
</defs>
</svg>
