<svg width="334" height="287" viewBox="0 0 334 287" fill="none" xmlns="http://www.w3.org/2000/svg">
<g clip-path="url(#clip0_691_2817)">
<path d="M237.361 129.185L74.8448 181.263L46.9651 190.198C42.7812 191.538 38.3131 189.349 36.7758 185.285L74.8448 139.484L122.759 81.8338L188.343 2.93076L196.106 0.440794C200.425 -0.943534 205.048 1.43715 206.432 5.7577L230.811 81.8356L242.676 118.859C244.061 123.178 241.68 127.801 237.359 129.185H237.361Z" fill="#4968E8"/>
<path d="M188.341 2.92889C189.443 33.2693 180.593 63.945 163.291 88.9157C149.775 108.418 131.579 124.207 112.58 138.422C88.7645 156.241 63.3621 171.944 36.7758 185.285C36.7266 185.154 36.6792 185.019 36.6373 184.882L0.393443 71.781C-0.990884 67.4622 1.3898 62.8375 5.70853 61.4532L188.341 2.92889Z" fill="#4A7AE5"/>
<path d="M221.396 52.4514L129.704 81.8356L74.8448 99.4129L15.357 118.477L4.16943 83.5605L210.208 17.5372L221.396 52.4514Z" fill="#262C3D"/>
<path d="M74.8448 113.83V132.079L68.2692 134.187L62.9651 117.637L74.8448 113.83Z" fill="#DAEBEF"/>
<path d="M210.208 17.5354L221.396 52.4496L175.627 67.1162C181.691 53.741 185.68 39.4205 187.423 24.8359L210.206 17.5354H210.208Z" fill="#141923"/>
<path d="M237.361 129.185L74.8447 181.263V132.079L76.4221 129.788V115.431L74.8447 113.828V99.4129L129.704 81.8338H230.811L242.676 118.857C244.061 123.176 241.68 127.799 237.359 129.183L237.361 129.185Z" fill="#4968E8"/>
<path d="M129.704 81.8356L74.8447 99.4148V93.7973C74.8447 87.1926 80.1999 81.8356 86.8082 81.8356H129.704Z" fill="#141923"/>
<path d="M80.2545 112.096V130.347L74.8447 132.079V113.83L80.2545 112.096Z" fill="#C1D8DB"/>
<path d="M211.392 104.473L55.4587 154.442C54.588 154.72 53.6573 154.241 53.3768 153.371C53.0962 152.5 53.5771 151.569 54.4478 151.289L210.381 101.32C211.252 101.041 212.183 101.52 212.463 102.391C212.742 103.262 212.263 104.193 211.392 104.473Z" fill="#374E9B"/>
<path d="M215.432 117.083L59.4988 167.052C58.6281 167.331 57.6973 166.852 57.4168 165.981C57.1363 165.11 57.6172 164.179 58.4878 163.899L214.421 113.93C215.292 113.651 216.223 114.131 216.503 115.001C216.782 115.872 216.303 116.803 215.432 117.083Z" fill="#374E9B"/>
<path d="M187.471 95.9867L149.325 108.213L74.8447 132.079V113.83L172.442 82.5551L174.688 81.8356L182.167 79.4385L182.935 81.8356L187.471 95.9867Z" fill="#A4BBBC"/>
<path d="M280.248 87.1944H288.401C292.936 87.1944 296.614 90.872 296.614 95.4075V214.175C296.614 218.711 292.936 222.389 288.401 222.389H88.4658C84.0724 222.389 80.4859 218.939 80.2637 214.602L280.248 87.1944Z" fill="#4968E8"/>
<path d="M280.248 87.1944C272.039 116.426 254.248 142.935 230.152 161.434C211.33 175.882 189.183 185.365 166.753 193.105C138.635 202.806 109.653 210.008 80.2636 214.6C80.2563 214.46 80.2545 214.318 80.2545 214.174V95.4056C80.2545 90.8701 83.9321 87.1926 88.4676 87.1926H280.25L280.248 87.1944Z" fill="#4A7AE5"/>
<path d="M131.957 117.522H104.934C102.292 117.522 100.151 119.664 100.151 122.305V141.495C100.151 144.136 102.292 146.278 104.934 146.278H131.957C134.599 146.278 136.741 144.136 136.741 141.495V122.305C136.741 119.664 134.599 117.522 131.957 117.522Z" fill="#FFC215"/>
<path d="M168.203 190.401H102.642C101.728 190.401 100.987 189.66 100.987 188.746C100.987 187.831 101.728 187.09 102.642 187.09H168.203C169.117 187.09 169.859 187.831 169.859 188.746C169.859 189.66 169.117 190.401 168.203 190.401Z" fill="#374E9B"/>
<path d="M108.797 171.431C108.376 171.852 107.695 171.852 107.276 171.431L105.438 169.593L103.601 171.431C103.18 171.852 102.499 171.852 102.08 171.431C101.661 171.012 101.661 170.331 102.08 169.91L103.917 168.072L102.08 166.234C101.659 165.813 101.659 165.132 102.08 164.713C102.499 164.292 103.18 164.292 103.601 164.713L105.438 166.551L107.276 164.713C107.697 164.292 108.378 164.292 108.797 164.713C109.218 165.132 109.218 165.813 108.797 166.234L106.959 168.072L108.797 169.91C109.216 170.331 109.216 171.012 108.797 171.431Z" fill="#374E9B"/>
<path d="M118.189 171.431C117.768 171.852 117.087 171.852 116.668 171.431L114.83 169.593L112.992 171.431C112.571 171.852 111.89 171.852 111.471 171.431C111.052 171.012 111.052 170.331 111.471 169.91L113.309 168.072L111.471 166.234C111.05 165.813 111.05 165.132 111.471 164.713C111.89 164.292 112.571 164.292 112.992 164.713L114.83 166.551L116.668 164.713C117.089 164.292 117.77 164.292 118.189 164.713C118.61 165.132 118.61 165.813 118.189 166.234L116.351 168.072L118.189 169.91C118.608 170.331 118.608 171.012 118.189 171.431Z" fill="#374E9B"/>
<path d="M127.58 171.431C127.16 171.852 126.478 171.852 126.059 171.431L124.222 169.593L122.384 171.431C121.963 171.852 121.282 171.852 120.863 171.431C120.444 171.012 120.444 170.331 120.863 169.91L122.701 168.072L120.863 166.234C120.442 165.813 120.442 165.132 120.863 164.713C121.282 164.292 121.963 164.292 122.384 164.713L124.222 166.551L126.059 164.713C126.48 164.292 127.161 164.292 127.58 164.713C128.001 165.132 128.001 165.813 127.58 166.234L125.742 168.072L127.58 169.91C127.999 170.331 127.999 171.012 127.58 171.431Z" fill="#374E9B"/>
<path d="M136.972 171.431C136.551 171.852 135.87 171.852 135.451 171.431L133.613 169.593L131.775 171.431C131.354 171.852 130.673 171.852 130.254 171.431C129.835 171.012 129.835 170.331 130.254 169.91L132.092 168.072L130.254 166.234C129.834 165.813 129.834 165.132 130.254 164.713C130.673 164.292 131.354 164.292 131.775 164.713L133.613 166.551L135.451 164.713C135.872 164.292 136.553 164.292 136.972 164.713C137.393 165.132 137.393 165.813 136.972 166.234L135.134 168.072L136.972 169.91C137.391 170.331 137.391 171.012 136.972 171.431Z" fill="#374E9B"/>
<path d="M153.608 171.431C153.187 171.852 152.506 171.852 152.087 171.431L150.249 169.593L148.411 171.431C147.99 171.852 147.309 171.852 146.89 171.431C146.471 171.012 146.471 170.331 146.89 169.91L148.728 168.072L146.89 166.234C146.469 165.813 146.469 165.132 146.89 164.713C147.309 164.292 147.99 164.292 148.411 164.713L150.249 166.551L152.087 164.713C152.507 164.292 153.189 164.292 153.608 164.713C154.028 165.132 154.028 165.813 153.608 166.234L151.77 168.072L153.608 169.91C154.026 170.331 154.026 171.012 153.608 171.431Z" fill="#374E9B"/>
<path d="M162.999 171.431C162.578 171.852 161.897 171.852 161.478 171.431L159.64 169.593L157.802 171.431C157.382 171.852 156.7 171.852 156.282 171.431C155.863 171.012 155.863 170.331 156.282 169.91L158.119 168.072L156.282 166.234C155.861 165.813 155.861 165.132 156.282 164.713C156.7 164.292 157.382 164.292 157.802 164.713L159.64 166.551L161.478 164.713C161.899 164.292 162.58 164.292 162.999 164.713C163.42 165.132 163.42 165.813 162.999 166.234L161.161 168.072L162.999 169.91C163.418 170.331 163.418 171.012 162.999 171.431Z" fill="#374E9B"/>
<path d="M172.391 171.431C171.97 171.852 171.289 171.852 170.87 171.431L169.032 169.593L167.194 171.431C166.773 171.852 166.092 171.852 165.673 171.431C165.254 171.012 165.254 170.331 165.673 169.91L167.511 168.072L165.673 166.234C165.252 165.813 165.252 165.132 165.673 164.713C166.092 164.292 166.773 164.292 167.194 164.713L169.032 166.551L170.87 164.713C171.29 164.292 171.972 164.292 172.391 164.713C172.811 165.132 172.811 165.813 172.391 166.234L170.553 168.072L172.391 169.91C172.81 170.331 172.81 171.012 172.391 171.431Z" fill="#374E9B"/>
<path d="M181.782 171.431C181.361 171.852 180.68 171.852 180.261 171.431L178.423 169.593L176.586 171.431C176.165 171.852 175.484 171.852 175.065 171.431C174.646 171.012 174.646 170.331 175.065 169.91L176.902 168.072L175.065 166.234C174.644 165.813 174.644 165.132 175.065 164.713C175.484 164.292 176.165 164.292 176.586 164.713L178.423 166.551L180.261 164.713C180.682 164.292 181.363 164.292 181.782 164.713C182.203 165.132 182.203 165.813 181.782 166.234L179.944 168.072L181.782 169.91C182.201 170.331 182.201 171.012 181.782 171.431Z" fill="#374E9B"/>
<path d="M198.418 171.431C197.997 171.852 197.316 171.852 196.897 171.431L195.059 169.593L193.221 171.431C192.8 171.852 192.119 171.852 191.7 171.431C191.281 171.012 191.281 170.331 191.7 169.91L193.538 168.072L191.7 166.234C191.279 165.813 191.279 165.132 191.7 164.713C192.119 164.292 192.8 164.292 193.221 164.713L195.059 166.551L196.897 164.713C197.318 164.292 197.999 164.292 198.418 164.713C198.839 165.132 198.839 165.813 198.418 166.234L196.58 168.072L198.418 169.91C198.837 170.331 198.837 171.012 198.418 171.431Z" fill="#374E9B"/>
<path d="M207.809 171.431C207.389 171.852 206.707 171.852 206.289 171.431L204.451 169.593L202.613 171.431C202.192 171.852 201.511 171.852 201.092 171.431C200.673 171.012 200.673 170.331 201.092 169.91L202.93 168.072L201.092 166.234C200.671 165.813 200.671 165.132 201.092 164.713C201.511 164.292 202.192 164.292 202.613 164.713L204.451 166.551L206.289 164.713C206.709 164.292 207.391 164.292 207.809 164.713C208.23 165.132 208.23 165.813 207.809 166.234L205.972 168.072L207.809 169.91C208.228 170.331 208.228 171.012 207.809 171.431Z" fill="#374E9B"/>
<path d="M217.201 171.431C216.78 171.852 216.099 171.852 215.68 171.431L213.842 169.593L212.004 171.431C211.583 171.852 210.902 171.852 210.483 171.431C210.064 171.012 210.064 170.331 210.483 169.91L212.321 168.072L210.483 166.234C210.063 165.813 210.063 165.132 210.483 164.713C210.902 164.292 211.583 164.292 212.004 164.713L213.842 166.551L215.68 164.713C216.101 164.292 216.782 164.292 217.201 164.713C217.622 165.132 217.622 165.813 217.201 166.234L215.363 168.072L217.201 169.91C217.62 170.331 217.62 171.012 217.201 171.431Z" fill="#374E9B"/>
<path d="M226.591 171.431C226.17 171.852 225.489 171.852 225.07 171.431L223.232 169.593L221.394 171.431C220.973 171.852 220.292 171.852 219.873 171.431C219.454 171.012 219.454 170.331 219.873 169.91L221.711 168.072L219.873 166.234C219.452 165.813 219.452 165.132 219.873 164.713C220.292 164.292 220.973 164.292 221.394 164.713L223.232 166.551L225.07 164.713C225.491 164.292 226.172 164.292 226.591 164.713C227.011 165.132 227.011 165.813 226.591 166.234L224.753 168.072L226.591 169.91C227.01 170.331 227.01 171.012 226.591 171.431Z" fill="#374E9B"/>
<path d="M243.228 171.431C242.807 171.852 242.126 171.852 241.707 171.431L239.869 169.593L238.031 171.431C237.611 171.852 236.929 171.852 236.511 171.431C236.092 171.012 236.092 170.331 236.511 169.91L238.348 168.072L236.511 166.234C236.09 165.813 236.09 165.132 236.511 164.713C236.929 164.292 237.611 164.292 238.031 164.713L239.869 166.551L241.707 164.713C242.128 164.292 242.809 164.292 243.228 164.713C243.649 165.132 243.649 165.813 243.228 166.234L241.39 168.072L243.228 169.91C243.647 170.331 243.647 171.012 243.228 171.431Z" fill="#374E9B"/>
<path d="M252.62 171.431C252.199 171.852 251.518 171.852 251.099 171.431L249.261 169.593L247.423 171.431C247.002 171.852 246.321 171.852 245.902 171.431C245.483 171.012 245.483 170.331 245.902 169.91L247.74 168.072L245.902 166.234C245.481 165.813 245.481 165.132 245.902 164.713C246.321 164.292 247.002 164.292 247.423 164.713L249.261 166.551L251.099 164.713C251.52 164.292 252.201 164.292 252.62 164.713C253.041 165.132 253.041 165.813 252.62 166.234L250.782 168.072L252.62 169.91C253.039 170.331 253.039 171.012 252.62 171.431Z" fill="#374E9B"/>
<path d="M262.011 171.431C261.59 171.852 260.909 171.852 260.49 171.431L258.652 169.593L256.815 171.431C256.394 171.852 255.713 171.852 255.294 171.431C254.875 171.012 254.875 170.331 255.294 169.91L257.131 168.072L255.294 166.234C254.873 165.813 254.873 165.132 255.294 164.713C255.713 164.292 256.394 164.292 256.815 164.713L258.652 166.551L260.49 164.713C260.911 164.292 261.592 164.292 262.011 164.713C262.432 165.132 262.432 165.813 262.011 166.234L260.173 168.072L262.011 169.91C262.43 170.331 262.43 171.012 262.011 171.431Z" fill="#374E9B"/>
<path d="M271.401 171.431C270.98 171.852 270.299 171.852 269.88 171.431L268.042 169.593L266.204 171.431C265.784 171.852 265.102 171.852 264.683 171.431C264.265 171.012 264.265 170.331 264.683 169.91L266.521 168.072L264.683 166.234C264.263 165.813 264.263 165.132 264.683 164.713C265.102 164.292 265.784 164.292 266.204 164.713L268.042 166.551L269.88 164.713C270.301 164.292 270.982 164.292 271.401 164.713C271.822 165.132 271.822 165.813 271.401 166.234L269.563 168.072L271.401 169.91C271.82 170.331 271.82 171.012 271.401 171.431Z" fill="#374E9B"/>
<path d="M269.683 123.442H241.013C240.099 123.442 239.358 122.701 239.358 121.786C239.358 120.872 240.099 120.13 241.013 120.13H269.683C270.598 120.13 271.339 120.872 271.339 121.786C271.339 122.701 270.598 123.442 269.683 123.442Z" fill="#374E9B"/>
<path d="M136.741 127.415V126.054H124.161V125.959C124.161 123.038 121.957 120.622 119.125 120.285V117.522H117.764V120.285C114.932 120.622 112.728 123.038 112.728 125.959V126.054H100.149V127.415H112.728V136.385H100.149V137.746H112.728V137.841C112.728 140.762 114.932 143.178 117.764 143.515V146.278H119.125V143.515C121.957 143.178 124.161 140.762 124.161 137.841V137.746H136.741V136.385H124.161V127.415H136.741ZM122.803 137.841C122.803 140.243 120.848 142.198 118.446 142.198C116.043 142.198 114.089 140.243 114.089 137.841V125.959C114.089 123.557 116.043 121.602 118.446 121.602C120.848 121.602 122.803 123.557 122.803 125.959V137.841Z" fill="#EFAC14"/>
<path d="M189.973 178.622H181.397V152.598C181.397 144.447 174.765 137.815 166.614 137.815C158.463 137.815 151.831 144.447 151.831 152.598V178.622H143.255V152.598C143.255 139.718 153.734 129.238 166.616 129.238C179.497 129.238 189.976 139.717 189.976 152.598V178.622H189.973Z" fill="#262C3D"/>
<path d="M191.812 171.387H141.414C134.683 171.387 129.226 176.843 129.226 183.574V233.973C129.226 240.704 134.683 246.161 141.414 246.161H191.812C198.543 246.161 204 240.704 204 233.973V183.574C204 176.843 198.543 171.387 191.812 171.387Z" fill="#FFC215"/>
<path d="M177.767 203.439C177.767 207.993 175.038 211.909 171.126 213.642L171.02 222.377C171.02 224.853 169.013 226.86 166.538 226.86C164.062 226.86 162.055 224.851 162.055 222.377L162.161 213.667C158.217 211.949 155.459 208.017 155.459 203.439C155.459 197.279 160.454 192.285 166.614 192.285C172.774 192.285 177.767 197.279 177.767 203.439Z" fill="#DB960E"/>
<path d="M203.998 183.576V233.973C203.998 240.705 198.543 246.161 191.812 246.161H141.414C135.9 246.161 131.241 242.499 129.736 237.476C134.826 240.525 141.45 241.077 147.556 240.971C152.468 240.887 157.374 240.833 162.243 240.634C181.228 239.858 196.142 224.11 195.831 205.112C195.74 199.591 195.667 194.325 195.663 189.84C195.659 185.693 195.843 181.409 194.062 177.585C192.814 174.911 190.404 172.509 187.454 171.389H191.814C198.545 171.389 204 176.844 204 183.576H203.998Z" fill="#F2B214"/>
<path d="M152.155 177.911C153.304 177.911 153.618 179.483 152.559 179.933C149.13 181.392 146.046 183.492 143.454 186.084C140.86 188.678 138.762 191.762 137.303 195.192C136.853 196.248 135.281 195.935 135.281 194.787V182.37C135.281 179.908 137.277 177.911 139.74 177.911H152.155Z" fill="#FFDF5A"/>
</g>
<defs>
<clipPath id="clip0_691_2817">
<rect width="334" height="286.113" fill="white" transform="translate(0 0.0473633)"/>
</clipPath>
</defs>
</svg>
