<svg width="301" height="176" viewBox="0 0 301 176" fill="none" xmlns="http://www.w3.org/2000/svg">
<path d="M301 139.711C301 137.942 299.566 136.509 297.798 136.509C296.029 136.509 294.596 137.942 294.596 139.711V151.87C294.596 153.639 296.029 155.072 297.798 155.072C299.566 155.072 301 153.639 301 151.87V139.711Z" fill="#11345B"/>
<path d="M105.352 60.1437V153.115H113.416V60.1437H105.352Z" fill="#11345B"/>
<path d="M105.352 155.063H10.3874C9.16068 155.063 8.16846 154.071 8.16846 152.844V111.171C8.16846 109.268 9.16068 107.5 10.7753 106.508L17.1435 102.602L30.8182 65.4927C32.514 60.0626 37.5472 56.3553 43.248 56.3553H103.512C105.605 56.3553 107.291 58.0511 107.291 60.1347V153.106C107.291 154.179 106.416 155.054 105.343 155.054L105.352 155.063Z" fill="#11345B"/>
<path d="M90.9468 139.963H107.3V60.1437C107.3 58.051 105.605 56.3643 103.521 56.3643H43.257C37.5653 56.3643 32.532 60.0625 30.8272 65.5017L17.1526 102.611L10.7843 106.517C9.16069 107.509 8.17749 109.277 8.17749 111.18V152.853C8.17749 154.08 9.16971 155.072 10.3965 155.072H39.694C39.5678 154.017 39.4956 152.943 39.4956 151.861C39.4956 136.897 51.6278 124.764 66.5923 124.764C77.2902 124.764 86.5449 130.97 90.9468 139.972V139.963Z" fill="url(#paint0_linear_691_2858)"/>
<g style="mix-blend-mode:multiply" opacity="0.5">
<path d="M102.366 139.963V63.1295C102.366 60.5768 100.292 58.5021 97.7391 58.5021H43.2571C38.4764 58.5021 34.3001 61.569 32.8929 66.0791L18.4786 105.524V145.782C18.4786 149.723 21.6808 152.926 25.6226 152.926H39.5318C39.5137 152.565 39.4957 152.213 39.4957 151.852C39.4957 151.392 39.5047 150.932 39.5318 150.472H25.6226C23.0338 150.472 20.9231 148.361 20.9231 145.772V105.948L35.2111 66.8548C36.3206 63.3189 39.5498 60.9466 43.2571 60.9466H97.7391C98.9388 60.9466 99.9129 61.9208 99.9129 63.1205V139.945H102.366V139.963Z" fill="#F8A71D"/>
</g>
<g style="mix-blend-mode:multiply" opacity="0.5">
<path d="M93.5086 60.9556H43.2571C39.5498 60.9556 36.3205 63.3279 35.2291 66.8367L22.3122 101.501C21.9333 102.71 22.1498 104 22.8985 105.019C23.6472 106.038 24.8108 106.634 26.0826 106.634H35.9417C40.551 106.634 45.0431 105.001 48.57 102.034L49.7967 100.996C53.1071 98.218 57.3105 96.6846 61.6402 96.6846H93.5086C95.8628 96.6846 97.7751 94.7723 97.7751 92.418V65.2221C97.7751 62.8678 95.8628 60.9556 93.5086 60.9556Z" fill="#F8A71D"/>
</g>
<path d="M97.7481 59.1155H43.2662C38.7561 59.1155 34.8143 62.011 33.4793 66.2865L19.1372 105.524L19.1011 105.624V145.772C19.1011 149.372 22.0326 152.303 25.6317 152.303H101.762V63.1295C101.762 60.9195 99.9581 59.1155 97.7481 59.1155ZM100.535 151.085H25.6227C22.6911 151.085 20.3098 148.704 20.3098 145.772V105.84L34.6248 66.6744C35.8155 62.8859 39.2792 60.3332 43.2481 60.3332H97.7301C99.2635 60.3332 100.517 61.587 100.517 63.1204V151.076L100.535 151.085Z" fill="#11345B"/>
<path d="M61.6402 96.0712H93.5085C95.529 96.0712 97.1617 94.4386 97.1617 92.418V65.2221C97.1617 63.2016 95.529 61.569 93.5085 61.569H43.257C39.8203 61.569 36.8256 63.7699 35.7973 67.0532L22.8894 101.691C22.2129 103.838 23.8275 106.029 26.0735 106.029H35.9326C40.4066 106.029 44.7363 104.451 48.164 101.574L49.3907 100.536C52.8184 97.6588 57.1481 96.0802 61.6221 96.0802L61.6402 96.0712Z" fill="#11345B"/>
<g style="mix-blend-mode:multiply" opacity="0.5">
<path d="M96.359 102.62H86.5631C85.6611 102.62 84.9304 103.351 84.9304 104.253C84.9304 105.155 85.6611 105.885 86.5631 105.885H96.359C97.261 105.885 97.9917 105.155 97.9917 104.253C97.9917 103.351 97.261 102.62 96.359 102.62Z" fill="#F8A71D"/>
</g>
<path d="M95.529 101.79H85.7331C84.8311 101.79 84.1005 102.521 84.1005 103.423C84.1005 104.325 84.8311 105.055 85.7331 105.055H95.529C96.4311 105.055 97.1617 104.325 97.1617 103.423C97.1617 102.521 96.4311 101.79 95.529 101.79Z" fill="#FEECCC"/>
<path d="M14.3834 146.674H5.95856V128.842C5.95856 127.191 4.54239 125.883 2.86463 126.036C1.40336 126.172 0.329956 127.489 0.329956 128.959V148.93C0.329956 150.093 0.916269 151.121 1.81829 151.726C2.3595 152.087 3.00895 152.303 3.70351 152.303H14.5007C16.1514 152.303 17.4593 150.887 17.306 149.209C17.1707 147.748 15.8537 146.674 14.3834 146.674Z" fill="#11345B"/>
<path d="M90.9468 139.963C92.7057 143.553 93.6889 147.586 93.6889 151.852C93.6889 152.943 93.6167 154.008 93.4905 155.063H105.343C106.416 155.063 107.291 154.188 107.291 153.115V139.963H90.9377H90.9468Z" fill="#11345B"/>
<path d="M26.218 88.7919L24.3779 88.0342C24.2516 87.9801 23.6743 88.0342 23.6743 88.0342C23.2413 87.8538 22.8895 88.828 22.8895 90.2171V102.728C22.8895 104.108 23.2413 105.38 23.6743 105.56L25.5144 106.318C25.6407 106.372 26.218 106.318 26.218 106.318C26.6509 106.499 27.0027 105.524 27.0027 104.135V91.6242C27.0027 90.2441 26.6509 88.9723 26.218 88.7919Z" fill="#EACFA4"/>
<path d="M25.5233 88.7919L23.6832 88.0342C23.2502 87.8538 22.8984 88.828 22.8984 90.2171V102.728C22.8984 104.108 23.2502 105.38 23.6832 105.56L25.5233 106.318C25.9563 106.499 26.3081 105.524 26.3081 104.135V91.6242C26.3081 90.2441 25.9563 88.9723 25.5233 88.7919Z" fill="#FEECCC"/>
<path d="M90.9468 139.963C86.5449 130.961 77.2902 124.755 66.5923 124.755C66.2134 124.755 65.8436 124.764 65.4738 124.782C75.6756 125.215 84.4071 131.286 88.6556 139.963C90.4146 143.553 91.3978 147.585 91.3978 151.852C91.3978 152.943 91.3256 154.008 91.1993 155.063H93.4995C93.6258 154.008 93.6979 152.934 93.6979 151.852C93.6979 147.585 92.7057 143.553 90.9558 139.963H90.9468Z" fill="#FEECCC"/>
<path d="M66.5923 175.81C79.8237 175.81 90.5499 165.083 90.5499 151.852C90.5499 138.621 79.8237 127.894 66.5923 127.894C53.3608 127.894 42.6346 138.621 42.6346 151.852C42.6346 165.083 53.3608 175.81 66.5923 175.81Z" fill="#233A4C"/>
<path d="M66.5922 174.078C78.8672 174.078 88.818 164.127 88.818 151.852C88.818 139.577 78.8672 129.626 66.5922 129.626C54.3173 129.626 44.3665 139.577 44.3665 151.852C44.3665 164.127 54.3173 174.078 66.5922 174.078Z" fill="#294259"/>
<path d="M66.5923 166.753C74.8221 166.753 81.4936 160.082 81.4936 151.852C81.4936 143.622 74.8221 136.951 66.5923 136.951C58.3625 136.951 51.6909 143.622 51.6909 151.852C51.6909 160.082 58.3625 166.753 66.5923 166.753Z" fill="#233A4C"/>
<path d="M66.5923 164.724C73.7012 164.724 79.4641 158.961 79.4641 151.852C79.4641 144.743 73.7012 138.98 66.5923 138.98C59.4834 138.98 53.7205 144.743 53.7205 151.852C53.7205 158.961 59.4834 164.724 66.5923 164.724Z" fill="#FEECCC"/>
<path d="M74.5571 141.749C76.289 143.941 77.3263 146.702 77.3263 149.705C77.3263 156.813 71.5624 162.577 64.4545 162.577C61.4507 162.577 58.6906 161.54 56.4987 159.808C58.8529 162.794 62.4971 164.724 66.6013 164.724C73.7092 164.724 79.4731 158.96 79.4731 151.852C79.4731 147.748 77.5518 144.104 74.5571 141.749Z" fill="#D8BF98"/>
<path d="M285.881 0.520325H118.884C113.687 0.520325 109.474 5.99427 109.474 12.7467V142.539C109.474 149.292 113.687 154.766 118.884 154.766H285.881C291.077 154.766 295.29 149.292 295.29 142.539V12.7467C295.29 5.99427 291.077 0.520325 285.881 0.520325Z" fill="url(#paint1_linear_691_2858)"/>
<path d="M282.247 155.063H191.125C189.952 155.063 188.996 154.107 188.996 152.935V112.948C188.996 111.126 189.943 109.43 191.504 108.474L197.62 104.722L210.744 69.1099C212.377 63.8962 217.202 60.3422 222.669 60.3422H280.497C282.5 60.3422 284.123 61.9659 284.123 63.9683V153.187C284.123 154.224 283.284 155.063 282.247 155.063Z" fill="#11345B"/>
<path d="M282.337 56.3643H222.073C216.382 56.3643 211.348 60.0625 209.643 65.5017L195.969 102.611L189.601 106.517C187.977 107.509 186.994 109.277 186.994 111.18V152.853C186.994 154.08 187.986 155.072 189.213 155.072H218.51C218.384 154.017 218.312 152.943 218.312 151.861C218.312 136.897 230.444 124.764 245.409 124.764C256.106 124.764 265.361 130.97 269.763 139.972C271.522 143.562 272.505 147.594 272.505 151.861C272.505 152.952 272.433 154.017 272.307 155.072H284.159C285.233 155.072 286.108 154.197 286.108 153.124V60.1437C286.108 58.051 284.412 56.3643 282.328 56.3643H282.337Z" fill="url(#paint2_linear_691_2858)"/>
<path d="M295.353 62.5973H109.925V89.1347H295.353V62.5973Z" fill="#FEECCC"/>
<g style="mix-blend-mode:multiply" opacity="0.5">
<path d="M288.119 7.73645H116.646C116.167 7.73645 115.788 8.25142 115.788 8.87418V148.216C115.788 148.85 116.176 149.353 116.646 149.353H288.119C288.597 149.353 288.976 148.838 288.976 148.216V8.87418C288.976 8.23944 288.588 7.73645 288.119 7.73645ZM287.758 9.35322V147.749H116.997V9.35322H287.758Z" fill="#F8A71D"/>
</g>
<path d="M289.318 7.73645H116.349C116.041 7.73645 115.788 8.07127 115.788 8.47784V148.612C115.788 149.019 116.041 149.353 116.349 149.353H289.318C289.625 149.353 289.878 149.019 289.878 148.612V8.47784C289.878 8.07127 289.625 7.73645 289.318 7.73645ZM289.273 148.54H116.412V8.54959H289.273V148.552V148.54Z" fill="#11345B"/>
<path d="M245.418 175.81C258.649 175.81 269.375 165.083 269.375 151.852C269.375 138.621 258.649 127.894 245.418 127.894C232.186 127.894 221.46 138.621 221.46 151.852C221.46 165.083 232.186 175.81 245.418 175.81Z" fill="#233A4C"/>
<path d="M245.418 174.078C257.693 174.078 267.643 164.127 267.643 151.852C267.643 139.577 257.693 129.626 245.418 129.626C233.143 129.626 223.192 139.577 223.192 151.852C223.192 164.127 233.143 174.078 245.418 174.078Z" fill="#294259"/>
<path d="M245.418 166.753C253.647 166.753 260.319 160.082 260.319 151.852C260.319 143.622 253.647 136.951 245.418 136.951C237.188 136.951 230.516 143.622 230.516 151.852C230.516 160.082 237.188 166.753 245.418 166.753Z" fill="#233A4C"/>
<path d="M245.418 164.724C252.526 164.724 258.289 158.961 258.289 151.852C258.289 144.743 252.526 138.98 245.418 138.98C238.309 138.98 232.546 144.743 232.546 151.852C232.546 158.961 238.309 164.724 245.418 164.724Z" fill="#FEECCC"/>
<path d="M253.373 141.749C255.105 143.941 256.143 146.702 256.143 149.705C256.143 156.813 250.379 162.577 243.271 162.577C240.267 162.577 237.507 161.54 235.315 159.808C237.669 162.794 241.313 164.724 245.418 164.724C252.525 164.724 258.289 158.96 258.289 151.852C258.289 147.748 256.368 144.104 253.373 141.749Z" fill="#D8BF98"/>
<path d="M269.772 139.963C265.37 130.961 256.116 124.755 245.418 124.755C245.039 124.755 244.669 124.764 244.299 124.782C254.501 125.215 263.232 131.286 267.481 139.963C269.24 143.553 270.223 147.585 270.223 151.852C270.223 152.943 270.151 154.008 270.025 155.063H272.325C272.451 154.008 272.523 152.934 272.523 151.852C272.523 147.585 271.531 143.553 269.781 139.963H269.772Z" fill="#FEECCC"/>
<path opacity="0.25" d="M289.157 121.68H115.843V122.554H289.157V121.68Z" fill="#11345B"/>
<defs>
<linearGradient id="paint0_linear_691_2858" x1="57.7344" y1="155.063" x2="57.7344" y2="56.3643" gradientUnits="userSpaceOnUse">
<stop stop-color="#FE9F0F"/>
<stop offset="1" stop-color="#FDBF2C"/>
</linearGradient>
<linearGradient id="paint1_linear_691_2858" x1="202.378" y1="0.520325" x2="202.378" y2="0.520325" gradientUnits="userSpaceOnUse">
<stop stop-color="#FE9F0F"/>
<stop offset="1" stop-color="#FDBF2C"/>
</linearGradient>
<linearGradient id="paint2_linear_691_2858" x1="236.56" y1="153.791" x2="236.56" y2="36.6191" gradientUnits="userSpaceOnUse">
<stop stop-color="#FE9F0F"/>
<stop offset="1" stop-color="#FDBF2C"/>
</linearGradient>
</defs>
</svg>
