<svg width="26" height="26" viewBox="0 0 26 26" fill="none" xmlns="http://www.w3.org/2000/svg">
<g clip-path="url(#clip0_280_27856)">
<path d="M16.7301 6.06219C16.9683 7.31239 15.3602 10.8259 11.8365 14.0557C8.43635 17.1724 2.1325 17.1798 0.824052 16.473C0.81222 16.2218 0.763156 15.9571 0.667145 15.6843C0.903292 15.4115 2.57239 13.95 6.14722 13.5106C10.9378 12.9219 11.8926 8.66073 15.0803 6.12042C15.7613 6.01046 16.2988 6.00075 16.7301 6.06219Z" fill="#FFE262"/>
<path d="M8.67195 19.2441C5.17576 20.6549 1.52261 18.2815 0.726898 17.2927C0.801308 17.0426 0.838052 16.7695 0.824049 16.473C1.88989 16.369 8.12579 15.6385 11.526 12.5219C15.0497 9.29206 16.3878 6.7911 16.7301 6.06219C17.7992 6.21476 18.2094 6.80402 18.5071 7.38084C19.1448 11.9294 12.9989 17.8365 8.67195 19.2441Z" fill="#F6D14F"/>
<path d="M18.5067 7.3804C18.5067 7.3804 18.4524 7.34892 18.3666 7.29899C18.0518 7.11609 17.3164 6.68841 17.3164 6.68841C17.0364 6.50116 16.797 6.40292 16.5859 6.35353C15.9449 6.20319 15.5617 6.50224 15.0809 6.1207C16.5029 5.01024 16.6646 3.62896 16.0361 2.59286L16.1197 2.59666L18.1072 2.68242C17.5976 4.01051 17.3756 4.81051 17.9433 5.76683C18.2038 6.20645 18.3759 6.66995 18.4681 7.14974C18.4833 7.22626 18.4958 7.30333 18.5067 7.3804Z" fill="#FFB563"/>
<path d="M18.4681 7.14974L18.3666 7.299C18.0518 7.11609 17.3164 6.68841 17.3164 6.68841C17.0364 6.50116 16.797 6.40293 16.5859 6.35354C17.1943 4.97633 16.8259 3.38636 16.3004 2.65366L18.1072 2.68242C17.5976 4.01051 17.3756 4.81052 17.9433 5.76683C18.2038 6.20645 18.3759 6.66996 18.4681 7.14974Z" fill="#FFA654"/>
<path d="M1.28892 16.3758C1.27719 16.7871 1.08322 17.3963 0.829702 17.3569C0.626771 17.3254 0.49217 16.7744 0.50042 16.3322C0.508127 15.9207 0.589213 15.6105 0.845713 15.6177C1.10216 15.6251 1.30059 15.9644 1.28892 16.3758Z" fill="#FFB563"/>
<path d="M16.3004 16.4873C13.1633 21.9383 7.29507 22.4977 6.04704 21.9068C5.97208 21.7294 5.87075 21.5504 5.73328 21.3698C5.73328 21.3698 7.24927 19.0031 10.1432 18.0381C14.2389 16.6725 14.537 10.8302 16.9684 7.31242C17.1124 7.10324 17.2267 6.89516 17.3173 6.68919C17.92 6.22715 18.2613 6.03198 18.5761 6.01797C20.5314 7.66987 18.8062 12.134 16.3004 16.4873Z" fill="#FFE262"/>
<path d="M14.93 22.1149C10.8829 25.2849 6.70798 23.2551 6.24057 22.8885C6.23303 22.5645 6.18722 22.2383 6.04703 21.9068C6.95813 21.834 12.4393 21.1752 15.5764 15.7242C18.0822 11.3709 19.0532 7.46177 18.576 6.01802C18.9464 6.0013 19.723 6.35957 19.9556 6.57059C23.4368 10.0553 19.281 18.9745 14.93 22.1149Z" fill="#F6D14F"/>
<path d="M19.9558 6.57063C19.9097 6.53155 19.5189 6.23901 18.6277 6.89736C17.6969 7.58338 17.3322 6.72856 17.317 6.68949C18.1382 4.78934 16.8258 3.06125 16.8258 3.06125L17.1509 3.06993H17.1553L17.178 3.07048H17.1786L18.6608 3.11064L18.765 3.11335C18.765 3.11552 18.765 3.11824 18.7645 3.12041C18.7444 3.49381 18.7314 3.8276 18.7379 4.12937C18.7401 4.21729 18.7433 4.3025 18.7487 4.385C18.7563 4.50495 18.7683 4.62001 18.7857 4.73073C18.873 5.30983 19.095 5.76791 19.5791 6.19505C19.7137 6.31445 19.8391 6.44037 19.9558 6.57063Z" fill="#FFB563"/>
<path d="M18.7856 4.73074C18.339 4.15109 17.5699 3.36954 17.1552 3.06995L17.178 3.07049H17.1786L18.6608 3.11065L18.7645 3.12042C18.7444 3.49383 18.7314 3.82762 18.7379 4.12938C18.7401 4.21731 18.7433 4.30252 18.7487 4.38501C18.7563 4.50496 18.7683 4.62002 18.7856 4.73074Z" fill="#FFA654"/>
<path d="M6.56729 21.8686C6.68556 22.2763 6.68767 23.0151 6.42574 22.9771C6.18835 22.9425 5.83187 22.5003 5.71361 22.0925C5.59535 21.6848 5.6386 21.3376 5.89282 21.2639C6.14705 21.1901 6.44903 21.4608 6.56729 21.8686Z" fill="#FFB563"/>
<path d="M22.841 15.6176C22.8534 20.9451 15.911 24.5549 14.1203 24.2977L13.4808 23.5009C13.4808 23.5009 14.71 20.3832 16.4972 18.6651C20.223 15.0843 18.1615 11.0689 19.7286 7.39164C19.8505 7.10643 19.9249 6.83419 19.9599 6.57487C20.2823 6.34735 20.6376 6.00124 21.2112 5.80716C22.841 7.38063 22.8296 10.8761 22.841 15.6176Z" fill="#FFE262"/>
<path d="M22.6464 21.2517C19.7036 25.4617 14.9079 25.074 14.7569 25.0908L14.1202 24.2977C14.9397 23.7467 21.0613 19.4538 21.049 14.1262C21.0376 9.38469 21.167 6.61149 21.2112 5.80715C21.5573 5.69019 21.9821 5.62815 22.5272 5.68156C27.2622 8.08602 25.6047 17.0194 22.6464 21.2517Z" fill="#F6D14F"/>
<path d="M22.527 5.68158C22.1391 5.75392 21.7242 5.90763 21.4287 6.22215C20.7053 6.99382 19.9598 6.57482 19.9598 6.57482C20.2692 4.3201 17.6106 3.10935 17.6106 3.10935L19.596 1.92172C19.9879 3.33644 21.1554 5.08874 22.2124 5.53487C22.32 5.58008 22.4255 5.62931 22.527 5.68158Z" fill="#FFB563"/>
<path d="M19.6606 1.4931C19.8022 2.11243 19.0813 2.80557 18.0503 3.04128C17.0194 3.27699 16.0689 2.966 15.9273 2.34673C15.7857 1.72741 16.5845 1.26374 17.6154 1.02803C18.6463 0.792259 19.519 0.873779 19.6606 1.4931Z" fill="#FFD084"/>
<path d="M14.608 23.9135C14.9394 24.3903 15.0599 25.1043 14.7568 25.0905C14.4008 25.0741 14.161 24.9249 13.8085 24.4648C13.4366 23.9792 13.3323 23.663 13.5568 23.3636C13.7388 23.1207 14.2766 23.4366 14.608 23.9135Z" fill="#FFB563"/>
</g>
<defs>
<clipPath id="clip0_280_27856">
<rect width="25" height="25" fill="white" transform="translate(0.5 0.5)"/>
</clipPath>
</defs>
</svg>
