<svg width="24" height="25" viewBox="0 0 24 25" fill="none" xmlns="http://www.w3.org/2000/svg">
<path d="M20.7 10.25H3.30005C3.13405 10.25 3 10.384 3 10.55V18.5C3 20.5 4 21.5 6 21.5H18C20 21.5 21 20.5 21 18.5V10.55C21 10.384 20.866 10.25 20.7 10.25ZM14.5 16.25H12.75V18C12.75 18.414 12.414 18.75 12 18.75C11.586 18.75 11.25 18.414 11.25 18V16.25H9.5C9.086 16.25 8.75 15.914 8.75 15.5C8.75 15.086 9.086 14.75 9.5 14.75H11.25V13C11.25 12.586 11.586 12.25 12 12.25C12.414 12.25 12.75 12.586 12.75 13V14.75H14.5C14.914 14.75 15.25 15.086 15.25 15.5C15.25 15.914 14.914 16.25 14.5 16.25ZM21 8V8.44995C21 8.61595 20.866 8.75 20.7 8.75H3.30005C3.13405 8.75 3 8.61595 3 8.44995V8C3 6 4 5 6 5H7.25V3.5C7.25 3.09 7.59 2.75 8 2.75C8.41 2.75 8.75 3.09 8.75 3.5V5H15.25V3.5C15.25 3.09 15.59 2.75 16 2.75C16.41 2.75 16.75 3.09 16.75 3.5V5H18C20 5 21 6 21 8Z" fill="#25314C"/>
</svg>
