<svg width="24" height="25" viewBox="0 0 24 25" fill="none" xmlns="http://www.w3.org/2000/svg">
<path d="M12 2.23944C6.48 2.23944 2 6.71944 2 12.2394C2 17.7594 6.48 22.2394 12 22.2394C17.52 22.2394 22 17.7594 22 12.2394C22 6.71944 17.52 2.23944 12 2.23944ZM16.03 10.4395L11.36 15.0994C11.22 15.2494 11.03 15.3195 10.83 15.3195C10.64 15.3195 10.45 15.2494 10.3 15.0994L7.97 12.7695C7.68 12.4795 7.68 11.9994 7.97 11.7094C8.26 11.4194 8.74 11.4194 9.03 11.7094L10.83 13.5095L14.97 9.37946C15.26 9.07946 15.74 9.07946 16.03 9.37946C16.32 9.66946 16.32 10.1395 16.03 10.4395Z" fill="#629836"/>
</svg>
