<svg width="32" height="33" viewBox="0 0 32 33" fill="none" xmlns="http://www.w3.org/2000/svg">
<path d="M26.6666 10.7867V24.12C26.6666 26.7867 25.3333 28.12 22.6666 28.12H9.33325C6.66659 28.12 5.33325 26.7867 5.33325 24.12V10.7867C5.33325 8.464 6.33578 7.156 8.35311 6.86267C8.51444 6.83867 8.66659 6.97198 8.66659 7.13464V7.45203C8.66659 9.87869 10.2399 11.452 12.6666 11.452H19.3333C21.7599 11.452 23.3333 9.87869 23.3333 7.45203V7.13464C23.3333 6.97198 23.4867 6.83867 23.6467 6.86267C25.6641 7.156 26.6666 8.464 26.6666 10.7867ZM12.6666 9.45333H19.3333C20.6666 9.45333 21.3333 8.78666 21.3333 7.45333V6.12C21.3333 4.78666 20.6666 4.12 19.3333 4.12H12.6666C11.3333 4.12 10.6666 4.78666 10.6666 6.12V7.45333C10.6666 8.78666 11.3333 9.45333 12.6666 9.45333Z" fill="#666EFA"/>
</svg>
