<svg width="26" height="26" viewBox="0 0 26 26" fill="none" xmlns="http://www.w3.org/2000/svg">
<g clip-path="url(#clip0_280_27876)">
<path d="M11.6718 13.1431V15.9526C11.6718 17.0966 10.8822 18.1093 9.668 18.7323C9.43075 18.854 9.17782 18.961 8.91073 19.0508C8.49169 19.1922 8.03988 19.2921 7.56478 19.3431C7.55922 19.3436 7.55316 19.3441 7.5476 19.3446C7.31488 19.3694 7.07655 19.382 6.83427 19.382H6.79032C6.55004 19.3805 6.31376 19.3663 6.08354 19.3411C5.82353 19.3124 5.5706 19.2689 5.32626 19.2119C4.87192 19.1063 4.44785 18.9549 4.06416 18.7641C3.78901 18.6283 3.53559 18.4723 3.30688 18.2991C2.49458 17.6857 1.99683 16.8603 1.99683 15.9526V13.1431H11.6718Z" fill="#4E901E"/>
<path d="M11.6717 13.1431V15.9526C11.6717 17.0966 10.8822 18.1093 9.66799 18.7323C9.43074 18.854 9.17781 18.961 8.91072 19.0508C8.49168 19.1922 8.03987 19.2921 7.56477 19.3431C7.55921 19.3421 7.55315 19.3416 7.54759 19.3411C7.28758 19.3124 7.03465 19.2689 6.79031 19.2119C6.33597 19.1063 5.9119 18.9549 5.52821 18.7641C5.25306 18.6283 4.99964 18.4723 4.77093 18.2991C3.95863 17.6857 3.46088 16.8603 3.46088 15.9526V13.1431H11.6717Z" fill="#5EAC24"/>
<path d="M25.498 6.9416C25.498 7.60849 25.3622 8.2456 25.1168 8.82568C24.3762 10.574 22.6411 11.8088 20.6308 11.8088H5.36723C2.69052 11.8088 0.5 9.61879 0.5 6.9416C0.5 6.29844 0.626709 5.68301 0.856445 5.11963C0.963476 4.85508 1.09424 4.60166 1.24468 4.36236C1.44057 4.05088 1.67075 3.76309 1.92973 3.5041C1.93427 3.49956 1.93882 3.49502 1.94336 3.49048C2.8248 2.61607 4.03544 2.07437 5.36723 2.07437H20.6308C23.308 2.07437 25.498 4.26441 25.498 6.9416Z" fill="#4E901E"/>
<path d="M25.498 6.9416C25.498 7.60849 25.3622 8.2456 25.1169 8.82568C24.2359 9.70107 23.0238 10.2438 21.691 10.2438H6.42741C3.7507 10.2438 1.56018 8.05375 1.56018 5.37656C1.56018 4.7334 1.68689 4.11797 1.91663 3.55459C1.92522 3.5334 1.9343 3.51167 1.94338 3.49048C2.82483 2.61607 4.03547 2.07437 5.36725 2.07437H20.6308C23.308 2.07437 25.498 4.26441 25.498 6.9416Z" fill="#5EAC24"/>
<path d="M20.6626 11.7788C23.3342 11.7788 25.5 9.61303 25.5 6.94138C25.5 4.26974 23.3342 2.10394 20.6626 2.10394C17.9909 2.10394 15.8251 4.26974 15.8251 6.94138C15.8251 9.61303 17.9909 11.7788 20.6626 11.7788Z" fill="#91DC5A"/>
<path d="M7.27001 4.74097C7.27001 4.94995 7.10038 5.11958 6.89139 5.11958H0.856445C0.963476 4.85503 1.09424 4.60161 1.24468 4.3623H6.89139C7.10038 4.36235 7.27001 4.53198 7.27001 4.74097Z" fill="#47821C"/>
<path d="M8.4059 5.11977H12.2932C12.5023 5.11977 12.6718 4.95024 12.6718 4.74116C12.6718 4.53208 12.5023 4.36255 12.2932 4.36255H8.4059C8.19676 4.36255 8.02728 4.53208 8.02728 4.74116C8.02728 4.95024 8.19681 5.11977 8.4059 5.11977Z" fill="#47821C"/>
<path d="M6.52114 7.72815H4.60273C4.3936 7.72815 4.22412 7.89768 4.22412 8.10676C4.22412 8.31589 4.39365 8.48537 4.60273 8.48537H6.52114C6.73027 8.48537 6.89975 8.31584 6.89975 8.10676C6.8998 7.89768 6.73027 7.72815 6.52114 7.72815Z" fill="#47821C"/>
<path d="M14.464 7.72815H8.03566C7.82653 7.72815 7.65704 7.89768 7.65704 8.10676C7.65704 8.31589 7.82657 8.48537 8.03566 8.48537H14.464C14.6732 8.48537 14.8426 8.31584 14.8426 8.10676C14.8427 7.89768 14.6732 7.72815 14.464 7.72815Z" fill="#47821C"/>
<path d="M6.83433 16.5552C9.50597 16.5552 11.6718 15.0198 11.6718 13.1258C11.6718 11.2317 9.50597 9.69632 6.83433 9.69632C4.16268 9.69632 1.99689 11.2317 1.99689 13.1258C1.99689 15.0198 4.16268 16.5552 6.83433 16.5552Z" fill="#91DC5A"/>
<path d="M6.84085 15.6192C8.98774 15.6192 10.7281 14.4804 10.7281 13.0758C10.7281 11.6711 8.98774 10.5323 6.84085 10.5323C4.69395 10.5323 2.95355 11.6711 2.95355 13.0758C2.95355 14.4804 4.69395 15.6192 6.84085 15.6192Z" fill="#B6E892"/>
<path d="M6.38243 12.4173C6.67519 12.4173 6.91251 12.2327 6.91251 12.005C6.91251 11.7773 6.67519 11.5927 6.38243 11.5927C6.08968 11.5927 5.85236 11.7773 5.85236 12.005C5.85236 12.2327 6.08968 12.4173 6.38243 12.4173Z" fill="#6DC82A"/>
<path d="M5.89482 14.3883C6.18758 14.3883 6.4249 14.201 6.4249 13.9698C6.4249 13.7387 6.18758 13.5513 5.89482 13.5513C5.60207 13.5513 5.36475 13.7387 5.36475 13.9698C5.36475 14.201 5.60207 14.3883 5.89482 14.3883Z" fill="#6DC82A"/>
<path d="M8.3347 13.6816C8.62746 13.6816 8.86478 13.4829 8.86478 13.2378C8.86478 12.9927 8.62746 12.7941 8.3347 12.7941C8.04195 12.7941 7.80463 12.9927 7.80463 13.2378C7.80463 13.4829 8.04195 13.6816 8.3347 13.6816Z" fill="#6DC82A"/>
<path d="M20.2542 17.6867V20.4962C20.2542 21.0642 20.0593 21.5998 19.7145 22.0713C19.5115 22.3495 19.2561 22.6055 18.9572 22.8327C18.6472 23.069 18.2903 23.2744 17.897 23.441C17.6572 23.543 17.4043 23.6303 17.1398 23.7015C16.8242 23.7868 16.4925 23.8494 16.1487 23.8863C16.1381 23.8873 16.128 23.8883 16.1174 23.8893C15.8887 23.9135 15.655 23.9256 15.4167 23.9256C15.398 23.9256 15.3789 23.9256 15.3602 23.9252C13.9915 23.9146 12.7592 23.5001 11.8893 22.8428C11.5915 22.6181 11.336 22.3647 11.1321 22.089C10.7787 21.613 10.5792 21.0713 10.5792 20.4963V17.6868H20.2542V17.6867Z" fill="#4E901E"/>
<path d="M20.2541 17.6867V20.4962C20.2541 21.0642 20.0593 21.5998 19.7145 22.0713C19.5115 22.3495 19.2561 22.6055 18.9572 22.8327C18.6472 23.069 18.2903 23.2744 17.897 23.441C17.6572 23.543 17.4043 23.6303 17.1397 23.7015C16.8242 23.7868 16.4925 23.8494 16.1487 23.8863C15.0527 23.7687 14.0778 23.39 13.3534 22.8428C13.0555 22.6181 12.8001 22.3647 12.5961 22.089C12.2427 21.613 12.0433 21.0713 12.0433 20.4963V17.6868H20.2541V17.6867Z" fill="#5EAC24"/>
<path d="M15.4167 21.0988C18.0884 21.0988 20.2542 19.5634 20.2542 17.6694C20.2542 15.7754 18.0884 14.24 15.4167 14.24C12.7451 14.24 10.5793 15.7754 10.5793 17.6694C10.5793 19.5634 12.7451 21.0988 15.4167 21.0988Z" fill="#91DC5A"/>
<path d="M15.4232 20.1628C17.5701 20.1628 19.3105 19.0241 19.3105 17.6194C19.3105 16.2147 17.5701 15.076 15.4232 15.076C13.2764 15.076 11.5359 16.2147 11.5359 17.6194C11.5359 19.0241 13.2764 20.1628 15.4232 20.1628Z" fill="#B6E892"/>
<path d="M14.9649 16.9609C15.2576 16.9609 15.495 16.7763 15.495 16.5486C15.495 16.3209 15.2576 16.1363 14.9649 16.1363C14.6721 16.1363 14.4348 16.3209 14.4348 16.5486C14.4348 16.7763 14.6721 16.9609 14.9649 16.9609Z" fill="#6DC82A"/>
<path d="M14.4772 18.932C14.7699 18.932 15.0072 18.7446 15.0072 18.5135C15.0072 18.2824 14.7699 18.095 14.4772 18.095C14.1844 18.095 13.9471 18.2824 13.9471 18.5135C13.9471 18.7446 14.1844 18.932 14.4772 18.932Z" fill="#6DC82A"/>
<path d="M16.9171 18.2252C17.2099 18.2252 17.4472 18.0265 17.4472 17.7815C17.4472 17.5364 17.2099 17.3377 16.9171 17.3377C16.6243 17.3377 16.387 17.5364 16.387 17.7815C16.387 18.0265 16.6243 18.2252 16.9171 18.2252Z" fill="#6DC82A"/>
<path d="M20.6287 11.0216C22.8727 11.0216 24.6917 9.20249 24.6917 6.95854C24.6917 4.71459 22.8727 2.89551 20.6287 2.89551C18.3848 2.89551 16.5657 4.71459 16.5657 6.95854C16.5657 9.20249 18.3848 11.0216 20.6287 11.0216Z" fill="#B6E892"/>
<path d="M20.7746 5.14512C21.0674 5.14512 21.3047 4.90779 21.3047 4.61504C21.3047 4.32228 21.0674 4.08496 20.7746 4.08496C20.4819 4.08496 20.2446 4.32228 20.2446 4.61504C20.2446 4.90779 20.4819 5.14512 20.7746 5.14512Z" fill="#6DC82A"/>
<path d="M18.9824 6.91208C19.2752 6.91208 19.5125 6.67476 19.5125 6.38201C19.5125 6.08925 19.2752 5.85193 18.9824 5.85193C18.6897 5.85193 18.4523 6.08925 18.4523 6.38201C18.4523 6.67476 18.6897 6.91208 18.9824 6.91208Z" fill="#6DC82A"/>
<path d="M20.1688 9.78974C20.4616 9.78974 20.6989 9.55241 20.6989 9.25966C20.6989 8.96691 20.4616 8.72958 20.1688 8.72958C19.8761 8.72958 19.6387 8.96691 19.6387 9.25966C19.6387 9.55241 19.8761 9.78974 20.1688 9.78974Z" fill="#6DC82A"/>
<path d="M23.3494 7.70722C23.6421 7.70722 23.8794 7.4699 23.8794 7.17714C23.8794 6.88439 23.6421 6.64706 23.3494 6.64706C23.0566 6.64706 22.8193 6.88439 22.8193 7.17714C22.8193 7.4699 23.0566 7.70722 23.3494 7.70722Z" fill="#6DC82A"/>
<path d="M7.54762 18.4102V19.3446C7.3149 19.3694 7.07657 19.382 6.83429 19.382H6.79034V18.4102C6.79034 18.2012 6.95997 18.0316 7.16896 18.0316C7.37799 18.0316 7.54762 18.2012 7.54762 18.4102Z" fill="#47821C"/>
<path d="M19.7145 21.0859V22.0713C19.5116 22.3495 19.2561 22.6055 18.9572 22.8327V21.0859C18.9572 20.8769 19.1268 20.7073 19.3358 20.7073C19.5449 20.7072 19.7145 20.8769 19.7145 21.0859Z" fill="#47821C"/>
<path d="M16.1174 21.7674V23.8893C15.8887 23.9135 15.655 23.9256 15.4167 23.9256C15.398 23.9256 15.3789 23.9256 15.3602 23.9251V21.7674C15.3602 21.5585 15.5298 21.3888 15.7388 21.3888C15.9478 21.3888 16.1174 21.5584 16.1174 21.7674Z" fill="#47821C"/>
<path d="M17.897 22.4995V23.441C17.6573 23.543 17.4043 23.6303 17.1398 23.7015V22.4995C17.1398 22.2905 17.3094 22.1208 17.5184 22.1208C17.7274 22.1208 17.897 22.2904 17.897 22.4995Z" fill="#47821C"/>
<path d="M9.66798 17.1986V18.7323C9.43072 18.854 9.17779 18.961 8.91071 19.0508V17.1986C8.91071 16.9896 9.08033 16.8199 9.28932 16.8199C9.4983 16.8199 9.66798 16.9896 9.66798 17.1986Z" fill="#47821C"/>
</g>
<defs>
<clipPath id="clip0_280_27876">
<rect width="25" height="25" fill="white" transform="translate(0.5 0.5)"/>
</clipPath>
</defs>
</svg>
