<svg width="25" height="29" viewBox="0 0 25 29" fill="none" xmlns="http://www.w3.org/2000/svg">
<path fill-rule="evenodd" clip-rule="evenodd" d="M18.2553 21.9956C18.3527 21.9956 18.4478 22.0245 18.5288 22.0786C18.6097 22.1326 18.6728 22.2095 18.71 22.2995C18.7473 22.3894 18.757 22.4884 18.738 22.5838C18.719 22.6793 18.6722 22.767 18.6033 22.8358C18.5345 22.9047 18.4468 22.9515 18.3513 22.9705C18.2559 22.9895 18.1569 22.9798 18.067 22.9425C17.977 22.9053 17.9002 22.8422 17.8461 22.7612C17.792 22.6803 17.7631 22.5851 17.7631 22.4878C17.7631 22.4232 17.7758 22.3591 17.8006 22.2994C17.8253 22.2397 17.8616 22.1854 17.9073 22.1397C17.953 22.094 18.0072 22.0578 18.067 22.033C18.1267 22.0083 18.1907 21.9956 18.2553 21.9956ZM10.0522 21.9956C10.1496 21.9956 10.2447 22.0245 10.3256 22.0786C10.4066 22.1326 10.4697 22.2095 10.5069 22.2995C10.5442 22.3894 10.5539 22.4884 10.5349 22.5838C10.5159 22.6793 10.469 22.767 10.4002 22.8358C10.3314 22.9047 10.2437 22.9515 10.1482 22.9705C10.0527 22.9895 9.95377 22.9798 9.86383 22.9425C9.7739 22.9053 9.69703 22.8422 9.64295 22.7612C9.58887 22.6803 9.56 22.5851 9.56 22.4878C9.55999 22.4232 9.57272 22.3591 9.59745 22.2994C9.62218 22.2397 9.65844 22.1854 9.70414 22.1397C9.74985 22.094 9.80412 22.0578 9.86384 22.033C9.92356 22.0083 9.98757 21.9956 10.0522 21.9956ZM8.66419 16.7554L9.1564 21.4607H8.97592C8.81668 21.4591 8.6623 21.5155 8.54156 21.6194C8.42082 21.7232 8.34196 21.8674 8.31967 22.0251L7.73889 26.2185H4.88092V18.7242C6.05481 17.9125 7.32581 17.2511 8.66419 16.7554ZM19.617 16.7422C21.0542 17.2166 22.3985 17.9359 23.5906 18.8684C23.9103 19.1188 24.1703 19.4371 24.3519 19.8003C24.5335 20.1635 24.6321 20.5625 24.6406 20.9685V26.2185H20.5424L19.9681 22.0251C19.9458 21.8674 19.867 21.7232 19.7462 21.6194C19.6255 21.5156 19.4711 21.4592 19.3119 21.4607H19.1314L19.617 16.7422ZM14.1406 15.7185C15.4501 15.722 16.7532 15.8996 18.0158 16.2468L17.4809 21.4607H10.8003L10.2655 16.2566C11.5298 15.9169 12.8316 15.7361 14.1406 15.7185ZM0.851581 10.3963C0.982108 10.3963 1.10728 10.4482 1.19958 10.5405C1.29187 10.6328 1.34373 10.758 1.34375 10.8885V15.0623C1.34277 15.2875 1.42604 15.505 1.57722 15.6719C1.7284 15.8389 1.93654 15.9433 2.16077 15.9646V10.8885C2.16077 10.758 2.21262 10.6328 2.30493 10.5405C2.39723 10.4482 2.52242 10.3963 2.65296 10.3963C2.78349 10.3963 2.90868 10.4482 3.00099 10.5405C3.09329 10.6328 3.14514 10.758 3.14514 10.8885V15.9744H4.02125V10.8885C4.02125 10.758 4.07311 10.6328 4.16541 10.5405C4.25771 10.4482 4.3829 10.3963 4.51344 10.3963C4.64397 10.3963 4.76916 10.4482 4.86147 10.5405C4.95377 10.6328 5.00562 10.758 5.00562 10.8885V15.9646H5.03515C5.15365 15.9646 5.27099 15.9413 5.38047 15.8959C5.48995 15.8506 5.58943 15.7841 5.67322 15.7003C5.75701 15.6165 5.82348 15.5171 5.86882 15.4076C5.91417 15.2981 5.9375 15.1808 5.9375 15.0623V10.8885C5.9375 10.758 5.98936 10.6328 6.08166 10.5405C6.17396 10.4482 6.29915 10.3963 6.42969 10.3963C6.56022 10.3963 6.68541 10.4482 6.77772 10.5405C6.87002 10.6328 6.92188 10.758 6.92188 10.8885V15.0655C6.92233 15.3137 6.87388 15.5596 6.77931 15.789C6.68473 16.0185 6.54588 16.2271 6.37068 16.4029C6.19547 16.5788 5.98735 16.7183 5.7582 16.8137C5.52905 16.9091 5.28336 16.9584 5.03515 16.9588H4.22471V28.0659H2.90235V16.949H2.2461C1.74599 16.9481 1.26661 16.749 0.912975 16.3954C0.55934 16.0418 0.360272 15.5624 0.359375 15.0623V10.8885C0.359395 10.758 0.411259 10.6328 0.503562 10.5405C0.595865 10.4482 0.721048 10.3963 0.851581 10.3963ZM14.0389 8.35857C15.8183 8.34442 17.5969 8.44088 19.3644 8.64739C19.386 8.81603 19.3947 8.98606 19.3906 9.15602C19.3906 10.5484 18.8375 11.8838 17.8529 12.8683C16.8684 13.8529 15.533 14.406 14.1406 14.406C12.7482 14.406 11.4129 13.8529 10.4283 12.8683C9.44375 11.8838 8.89062 10.5484 8.89062 9.15602C8.88619 8.97625 8.89496 8.79639 8.91687 8.6179C10.6179 8.43465 12.328 8.34807 14.0389 8.35857ZM11.6665 0.624775C13.0611 0.624775 13.34 0.9858 14.1767 0.9858C15.0134 0.9858 15.2923 0.624775 16.6868 0.624775C18.0092 0.624775 18.6359 3.5057 18.8393 5.12665C22.2387 6.14713 23.3905 7.00675 23.3806 7.70231C23.3806 9.15601 22.662 7.37418 14.0291 7.37418C5.27137 7.37418 4.67747 9.15601 4.67747 7.70231C4.67747 7.00356 5.85217 6.13388 9.27122 5.11341C9.55012 3.48923 10.354 0.624775 11.6665 0.624775Z" fill="#629836"/>
</svg>
