<svg width="34" height="34" viewBox="0 0 34 34" fill="none" xmlns="http://www.w3.org/2000/svg">
<path d="M19.8334 24.0833C19.8334 21.7359 21.7359 19.8333 24.0834 19.8333C26.4308 19.8333 28.3334 21.7359 28.3334 24.0833C28.3334 26.4307 26.4308 28.3333 24.0834 28.3333C21.7359 28.3333 19.8334 26.4307 19.8334 24.0833ZM26.2084 5.66666H21.9584C20.5417 5.66666 19.8334 6.37499 19.8334 7.79166V12.0417C19.8334 13.4583 20.5417 14.1667 21.9584 14.1667H26.2084C27.625 14.1667 28.3334 13.4583 28.3334 12.0417V7.79166C28.3334 6.37499 27.625 5.66666 26.2084 5.66666ZM12.0417 5.66666H7.79169C6.37502 5.66666 5.66669 6.37499 5.66669 7.79166V12.0417C5.66669 13.4583 6.37502 14.1667 7.79169 14.1667H12.0417C13.4584 14.1667 14.1667 13.4583 14.1667 12.0417V7.79166C14.1667 6.37499 13.4584 5.66666 12.0417 5.66666ZM12.0417 19.8333H7.79169C6.37502 19.8333 5.66669 20.5417 5.66669 21.9583V26.2083C5.66669 27.625 6.37502 28.3333 7.79169 28.3333H12.0417C13.4584 28.3333 14.1667 27.625 14.1667 26.2083V21.9583C14.1667 20.5417 13.4584 19.8333 12.0417 19.8333Z" fill="white"/>
</svg>
