<svg width="25" height="24" viewBox="0 0 25 24" fill="none" xmlns="http://www.w3.org/2000/svg">
<path d="M12.3333 21.75C12.2273 21.75 12.1212 21.728 12.0222 21.683C11.6952 21.534 3.99929 17.965 2.76529 11.609C2.28829 9.15 2.76729 6.75098 4.04629 5.19298C5.08129 3.93098 6.56925 3.25997 8.35025 3.25097C8.35925 3.25097 8.36825 3.25097 8.37625 3.25097C10.4083 3.25097 11.6473 4.408 12.3323 5.393C13.0203 4.404 14.2692 3.24197 16.3142 3.25097C18.0962 3.25997 19.5852 3.93098 20.6212 5.19298C21.8982 6.74998 22.3762 9.14898 21.8982 11.61C20.6662 17.966 12.9692 21.536 12.6422 21.684C12.5452 21.728 12.4393 21.75 12.3333 21.75ZM8.37527 4.74999C8.36927 4.74999 8.36431 4.74999 8.35831 4.74999C7.02031 4.75599 5.96033 5.22497 5.20633 6.14397C4.20733 7.36097 3.84631 9.29699 4.23831 11.323C5.19331 16.247 10.9263 19.447 12.3333 20.165C13.7403 19.447 19.4733 16.247 20.4273 11.323C20.8213 9.29599 20.4603 7.35997 19.4633 6.14397C18.7093 5.22597 17.6493 4.75797 16.3083 4.75097C16.3023 4.75097 16.2963 4.75097 16.2913 4.75097C13.9193 4.75097 13.0783 7.12799 13.0443 7.22899C12.9403 7.53199 12.6543 7.73797 12.3343 7.73797C12.3323 7.73797 12.3312 7.73797 12.3302 7.73797C12.0092 7.73697 11.7232 7.53198 11.6212 7.22698C11.5882 7.12698 10.7463 4.74999 8.37527 4.74999Z" fill="#8B8D91"/>
</svg>
