<svg width="30" height="30" viewBox="0 0 30 30" fill="none" xmlns="http://www.w3.org/2000/svg">
<circle cx="15" cy="15" r="15" fill="#F4F6F9"/>
<g clip-path="url(#clip0_786_4644)">
<path d="M10.6932 18.4147L9.57336 19.5345C9.41777 19.6901 9.41777 19.9424 9.57336 20.0979C9.72895 20.2535 9.98119 20.2535 10.1368 20.0979L11.2566 18.9781C10.9994 18.8756 10.7956 18.6719 10.6932 18.4147Z" fill="#E78244"/>
<path d="M19.6223 10.1421L19.6123 10.059L19.5292 10.049C18.8598 9.96792 18.083 10.2785 17.502 10.8595C16.9211 11.4405 16.6105 12.2173 16.6915 12.8867L16.7016 12.9697L16.7847 12.9798C16.855 12.9883 16.9266 12.9925 16.9991 12.9925C17.6153 12.9925 18.2919 12.6891 18.8118 12.1692C19.3928 11.5883 19.7034 10.8115 19.6223 10.1421Z" fill="#E78244"/>
<path d="M16.7762 9.40875C16.6499 9.28245 16.4452 9.28245 16.3189 9.40875L15.3525 10.3751C14.8479 10.7471 14.4838 11.4127 14.3874 12.1576C14.282 12.9725 14.5102 13.7773 14.983 14.258L15.0417 14.3177L15.1137 14.2749C15.6933 13.9304 16.1189 13.2102 16.2244 12.3954C16.3036 11.7828 16.1943 11.1759 15.9342 10.708L16.7762 9.86602C16.9025 9.73974 16.9025 9.53502 16.7762 9.40875Z" fill="#E78244"/>
<path d="M11.7306 14.1933L11.6719 14.1337L11.6 14.1764C11.0203 14.5209 10.5947 15.2411 10.4892 16.0559C10.3838 16.8708 10.612 17.6756 11.0848 18.1563L11.1435 18.216L11.2155 18.1732C11.7951 17.8287 12.2207 17.1085 12.3262 16.2937C12.4316 15.4789 12.2034 14.674 11.7306 14.1933Z" fill="#E78244"/>
<path d="M13.6798 12.244L13.6211 12.1844L13.5492 12.2271C12.9695 12.5716 12.5439 13.2918 12.4385 14.1067C12.333 14.9215 12.5612 15.7263 13.0341 16.207L13.0927 16.2667L13.1647 16.2239C13.7443 15.8794 14.1699 15.1592 14.2754 14.3444C14.3809 13.5296 14.1527 12.7248 13.6798 12.244Z" fill="#E78244"/>
<path d="M15.4781 17.9408C14.9973 17.4679 14.1925 17.2397 13.3777 17.3452C12.5629 17.4507 11.8427 17.8763 11.4982 18.4559L11.4554 18.5279L11.5151 18.5865C11.9182 18.983 12.5491 19.2075 13.2228 19.2075C13.3525 19.2075 13.4839 19.1992 13.6155 19.1821C14.4303 19.0766 15.1505 18.6511 15.495 18.0714L15.5377 17.9995L15.4781 17.9408Z" fill="#E78244"/>
<path d="M17.4273 15.9915C16.9466 15.5187 16.1416 15.2904 15.3269 15.3959C14.5121 15.5014 13.7919 15.927 13.4474 16.5066L13.4047 16.5786L13.4643 16.6373C13.8674 17.0337 14.4984 17.2582 15.172 17.2582C15.3017 17.2582 15.4331 17.2499 15.5647 17.2329C16.3795 17.1274 17.0997 16.7018 17.4442 16.1221L17.4869 16.0502L17.4273 15.9915Z" fill="#E78244"/>
<path d="M20.2626 12.8951C20.1363 12.7688 19.9316 12.7688 19.8053 12.8951L18.9633 13.7371C18.4955 13.477 17.8885 13.3676 17.2759 13.4469C16.4611 13.5524 15.7409 13.978 15.3964 14.5577L15.3536 14.6296L15.4133 14.6883C15.8164 15.0848 16.4473 15.3093 17.121 15.3093C17.2507 15.3093 17.3821 15.3009 17.5137 15.2839C18.2586 15.1875 18.9242 14.8234 19.2962 14.3188L20.2626 13.3524C20.3888 13.2261 20.3888 13.0214 20.2626 12.8951Z" fill="#E78244"/>
</g>
<defs>
<clipPath id="clip0_786_4644">
<rect width="10.9006" height="10.9006" fill="white" transform="translate(9.45667 9.31403)"/>
</clipPath>
</defs>
</svg>
