<svg width="30" height="30" viewBox="0 0 30 30" fill="none" xmlns="http://www.w3.org/2000/svg">
<circle cx="15" cy="15" r="15" fill="#F4F6F9"/>
<path d="M11.6709 15.4125C11.4428 15.1844 11.4428 14.8157 11.6709 14.5876C11.8989 14.3595 12.2676 14.3595 12.4957 14.5876L14.4166 16.5085V9.75002C14.4166 9.42802 14.6774 9.16669 15 9.16669C15.3225 9.16669 15.5833 9.42802 15.5833 9.75002V16.5085L17.5042 14.5876C17.7323 14.3595 18.101 14.3595 18.3291 14.5876C18.5571 14.8157 18.5571 15.1844 18.3291 15.4125L15.413 18.3286C15.3587 18.3828 15.2946 18.4254 15.2228 18.4552C15.1517 18.4849 15.0758 18.5 15 18.5C14.9241 18.5 14.8482 18.4843 14.7771 18.4552C14.7053 18.4254 14.6412 18.3828 14.587 18.3286L11.6709 15.4125ZM18.5 19.6667H11.5C11.1774 19.6667 10.9166 19.928 10.9166 20.25C10.9166 20.572 11.1774 20.8334 11.5 20.8334H18.5C18.8225 20.8334 19.0833 20.572 19.0833 20.25C19.0833 19.928 18.8225 19.6667 18.5 19.6667Z" fill="#E78244"/>
</svg>
