<svg width="25" height="25" viewBox="0 0 25 25" fill="none" xmlns="http://www.w3.org/2000/svg">
<path d="M5.31403 10.238L4.48804 10.6509C3.88204 10.9539 3.49902 11.573 3.49902 12.25V20.6699C3.49902 21.4199 4.27904 21.9001 4.94904 21.5701L7.98404 20.043C8.08504 19.992 8.14902 19.8879 8.14902 19.7749V14.8831C8.14902 14.8041 8.11804 14.73 8.06204 14.675C6.94104 13.567 5.99604 12.1879 5.73804 10.4709C5.70804 10.2659 5.49803 10.146 5.31403 10.238ZM13.32 17.4199L12.49 17.98L11.66 17.4199C11.66 17.4199 10.78 16.8409 10.12 16.3789C9.92203 16.2399 9.65002 16.384 9.65002 16.626V19.6621C9.65002 19.7871 9.72803 19.8991 9.84503 19.9431L14.945 21.8579C15.141 21.9309 15.35 21.7859 15.35 21.5769V16.6089C15.35 16.3669 15.079 16.2241 14.881 16.3611C14.213 16.8251 13.32 17.4199 13.32 17.4199ZM20.05 9.16992L19.499 9.44507C19.326 9.51807 19.327 9.70209 19.323 9.78809C19.233 11.8171 18.194 13.41 16.936 14.665C16.881 14.72 16.849 14.794 16.849 14.873V21.4341C16.849 21.6571 17.084 21.8019 17.284 21.7019L20.509 20.0811C21.119 19.7711 21.499 19.1509 21.499 18.4709V10.061C21.5 9.17004 20.72 8.83992 20.05 9.16992ZM12.49 4.16992C9.55002 4.16992 7.16003 6.55 7.16003 9.5C7.16003 12.83 10.49 14.8299 12.49 16.1699C14.49 14.8299 17.83 12.83 17.83 9.5C17.83 6.55 15.44 4.16992 12.49 4.16992ZM12.49 11.1699C11.57 11.1699 10.83 10.42 10.83 9.5C10.83 8.58 11.57 7.83008 12.49 7.83008C13.41 7.83008 14.16 8.58 14.16 9.5C14.16 10.42 13.41 11.1699 12.49 11.1699Z" fill="#25314C"/>
</svg>
