<svg width="25" height="24" viewBox="0 0 25 24" fill="none" xmlns="http://www.w3.org/2000/svg">
<path d="M17.6667 3H7.66669C5.66669 3 4.66669 4 4.66669 6V18C4.66669 20 5.66669 21 7.66669 21H17.6667C19.6667 21 20.6667 20 20.6667 18V6C20.6667 4 19.6667 3 17.6667 3ZM8.66669 16.75C8.25269 16.75 7.91669 16.414 7.91669 16C7.91669 15.586 8.25269 15.25 8.66669 15.25C9.08069 15.25 9.41669 15.586 9.41669 16C9.41669 16.414 9.08069 16.75 8.66669 16.75ZM8.66669 12.75C8.25269 12.75 7.91669 12.414 7.91669 12C7.91669 11.586 8.25269 11.25 8.66669 11.25C9.08069 11.25 9.41669 11.586 9.41669 12C9.41669 12.414 9.08069 12.75 8.66669 12.75ZM8.66669 8.75C8.25269 8.75 7.91669 8.414 7.91669 8C7.91669 7.586 8.25269 7.25 8.66669 7.25C9.08069 7.25 9.41669 7.586 9.41669 8C9.41669 8.414 9.08069 8.75 8.66669 8.75ZM16.6667 16.75H11.6667C11.2527 16.75 10.9167 16.414 10.9167 16C10.9167 15.586 11.2527 15.25 11.6667 15.25H16.6667C17.0807 15.25 17.4167 15.586 17.4167 16C17.4167 16.414 17.0807 16.75 16.6667 16.75ZM16.6667 12.75H11.6667C11.2527 12.75 10.9167 12.414 10.9167 12C10.9167 11.586 11.2527 11.25 11.6667 11.25H16.6667C17.0807 11.25 17.4167 11.586 17.4167 12C17.4167 12.414 17.0807 12.75 16.6667 12.75ZM16.6667 8.75H11.6667C11.2527 8.75 10.9167 8.414 10.9167 8C10.9167 7.586 11.2527 7.25 11.6667 7.25H16.6667C17.0807 7.25 17.4167 7.586 17.4167 8C17.4167 8.414 17.0807 8.75 16.6667 8.75Z" fill="#00AC0D"/>
</svg>
