<svg width="25" height="24" viewBox="0 0 25 24" fill="none" xmlns="http://www.w3.org/2000/svg">
<path d="M17.6667 2.5H7.66669C5.37669 2.5 4.16669 3.71 4.16669 6V18C4.16669 20.29 5.37669 21.5 7.66669 21.5H17.6667C19.9567 21.5 21.1667 20.29 21.1667 18V6C21.1667 3.71 19.9567 2.5 17.6667 2.5ZM20.1667 18C20.1667 19.729 19.3957 20.5 17.6667 20.5H7.66669C5.93769 20.5 5.16669 19.729 5.16669 18V6C5.16669 4.271 5.93769 3.5 7.66669 3.5H17.6667C19.3957 3.5 20.1667 4.271 20.1667 6V18ZM17.1667 8C17.1667 8.276 16.9427 8.5 16.6667 8.5H11.6667C11.3907 8.5 11.1667 8.276 11.1667 8C11.1667 7.724 11.3907 7.5 11.6667 7.5H16.6667C16.9427 7.5 17.1667 7.724 17.1667 8ZM17.1667 12C17.1667 12.276 16.9427 12.5 16.6667 12.5H11.6667C11.3907 12.5 11.1667 12.276 11.1667 12C11.1667 11.724 11.3907 11.5 11.6667 11.5H16.6667C16.9427 11.5 17.1667 11.724 17.1667 12ZM17.1667 16C17.1667 16.276 16.9427 16.5 16.6667 16.5H11.6667C11.3907 16.5 11.1667 16.276 11.1667 16C11.1667 15.724 11.3907 15.5 11.6667 15.5H16.6667C16.9427 15.5 17.1667 15.724 17.1667 16ZM9.41669 8C9.41669 8.414 9.08069 8.75 8.66669 8.75C8.25269 8.75 7.91669 8.414 7.91669 8C7.91669 7.586 8.25269 7.25 8.66669 7.25C9.08069 7.25 9.41669 7.586 9.41669 8ZM9.41669 12C9.41669 12.414 9.08069 12.75 8.66669 12.75C8.25269 12.75 7.91669 12.414 7.91669 12C7.91669 11.586 8.25269 11.25 8.66669 11.25C9.08069 11.25 9.41669 11.586 9.41669 12ZM9.41669 16C9.41669 16.414 9.08069 16.75 8.66669 16.75C8.25269 16.75 7.91669 16.414 7.91669 16C7.91669 15.586 8.25269 15.25 8.66669 15.25C9.08069 15.25 9.41669 15.586 9.41669 16Z" fill="#8B8D91"/>
</svg>
