<svg width="22" height="22" viewBox="0 0 22 22" fill="none" xmlns="http://www.w3.org/2000/svg">
<path d="M11.0184 2.6675C7.98419 2.6675 5.51835 5.13334 5.51835 8.1675V10.8167C5.51835 11.3758 5.28002 12.2283 4.99585 12.705L3.94169 14.4558C3.29085 15.5375 3.74002 16.7383 4.93169 17.1417C8.88252 18.4617 13.145 18.4617 17.0959 17.1417C18.205 16.775 18.6909 15.4642 18.0859 14.4558L17.0317 12.705C16.7567 12.2283 16.5184 11.3758 16.5184 10.8167V8.1675C16.5184 5.1425 14.0434 2.6675 11.0184 2.6675Z" stroke="#191D31" stroke-width="1.5" stroke-miterlimit="10" stroke-linecap="round"/>
<path d="M12.7142 2.93334C12.43 2.85084 12.1367 2.78667 11.8342 2.75C10.9542 2.64 10.1108 2.70417 9.32251 2.93334C9.58834 2.255 10.2483 1.77834 11.0183 1.77834C11.7883 1.77834 12.4483 2.255 12.7142 2.93334Z" stroke="#191D31" stroke-width="1.5" stroke-miterlimit="10" stroke-linecap="round" stroke-linejoin="round"/>
<path d="M13.7683 17.4717C13.7683 18.9842 12.5308 20.2217 11.0183 20.2217C10.2666 20.2217 9.56998 19.91 9.07498 19.415C8.57998 18.92 8.26831 18.2233 8.26831 17.4717" stroke="#191D31" stroke-width="1.5" stroke-miterlimit="10"/>
</svg>
