<svg width="75" height="86" viewBox="0 0 75 86" fill="none" xmlns="http://www.w3.org/2000/svg">
<path d="M48.2143 0H5.35714C2.40536 0 0 2.41337 0 5.375V80.625C0 83.592 2.40536 86 5.35714 86H48.2143C51.1714 86 53.5714 83.592 53.5714 80.625V5.375C53.5714 2.41337 51.1714 0 48.2143 0Z" fill="#455A64"/>
<rect x="5.35718" y="10.75" width="42.8571" height="59.125" fill="white"/>
<path d="M69.6428 21.5H37.5C34.5482 21.5 32.1428 23.9134 32.1428 26.875V48.375C32.1428 51.3904 34.4946 53.75 37.5 53.75H42.8571V59.125C42.8571 60.1409 43.4303 61.0708 44.3357 61.5276C44.716 61.7158 45.1285 61.8125 45.5357 61.8125C46.1035 61.8125 46.6714 61.6298 47.1428 61.275L57.1446 53.75H69.6428C72.6482 53.75 75 51.3904 75 48.375V26.875C75 23.8596 72.6482 21.5 69.6428 21.5Z" fill="#FFA654"/>
<path d="M45.6429 40.3125C44.1643 40.3125 42.9375 39.1085 42.9375 37.625C42.9375 36.1415 44.1054 34.9375 45.5893 34.9375H45.6429C47.1214 34.9375 48.3214 36.1415 48.3214 37.625C48.3214 39.1085 47.1214 40.3125 45.6429 40.3125Z" fill="#FAFAFA"/>
<path d="M61.7143 40.3125C60.2411 40.3125 59.0089 39.1085 59.0089 37.625C59.0089 36.1415 60.1821 34.9375 61.6607 34.9375H61.7143C63.1928 34.9375 64.3928 36.1415 64.3928 37.625C64.3928 39.1085 63.1928 40.3125 61.7143 40.3125Z" fill="#FAFAFA"/>
</svg>
