<svg width="19" height="20" viewBox="0 0 19 20" fill="none" xmlns="http://www.w3.org/2000/svg">
<g clip-path="url(#clip0_280_27774)">
<path d="M18.9815 9.72217C18.9815 8.12736 17.83 6.79626 16.3144 6.517C16.3623 4.17313 14.0826 2.35984 11.7452 3.05554C11.0375 1.55748 9.52045 0.5 7.72227 0.5C5.32673 0.5 3.36748 2.40517 3.28082 4.77997C1.39079 5.19138 0.0186157 6.87081 0.0186157 8.83328C0.0186157 11.1207 1.87935 12.9814 4.16674 12.9814H15.7222C17.5193 12.9814 18.9815 11.5192 18.9815 9.72217Z" fill="#369DF7"/>
<path d="M13.0243 13.9328C12.7316 13.7865 12.3756 13.9051 12.2293 14.1979L11.0441 16.5682C10.8457 16.965 11.1381 17.426 11.5737 17.426C11.791 17.426 12.0003 17.3059 12.1041 17.0983L13.2893 14.7279C13.4357 14.4352 13.317 14.0792 13.0243 13.9328Z" fill="#369DF7"/>
<path d="M18.3575 13.9328C18.0648 13.7865 17.7088 13.9051 17.5625 14.1979L16.3773 16.5682C16.179 16.965 16.4714 17.426 16.9069 17.426C17.1243 17.426 17.3336 17.3059 17.4374 17.0983L18.6226 14.7279C18.7689 14.4352 18.6503 14.0792 18.3575 13.9328Z" fill="#369DF7"/>
<path d="M7.69097 13.9328C7.39831 13.7865 7.04227 13.9051 6.89594 14.1979L5.71076 16.5682C5.51239 16.965 5.80484 17.426 6.24035 17.426C6.45772 17.426 6.66702 17.3059 6.77083 17.0983L7.95601 14.7279C8.10234 14.4352 7.98371 14.0792 7.69097 13.9328Z" fill="#369DF7"/>
<path d="M2.35766 13.9328C2.06499 13.7865 1.70896 13.9051 1.56263 14.1979L0.377448 16.5682C0.179079 16.965 0.471522 17.426 0.907038 17.426C1.12441 17.426 1.3337 17.3059 1.43752 17.0983L2.62269 14.7279C2.76903 14.4352 2.6504 14.0792 2.35766 13.9328Z" fill="#369DF7"/>
<path d="M9.46874 16.0069C9.17604 15.8606 8.82004 15.9792 8.67371 16.2719L7.48853 18.6423C7.29016 19.039 7.58261 19.5 8.01812 19.5C8.23549 19.5 8.44479 19.38 8.5486 19.1723L9.73378 16.802C9.88011 16.5092 9.76148 16.1533 9.46874 16.0069Z" fill="#369DF7"/>
<path d="M14.8021 16.0069C14.5094 15.8606 14.1534 15.9792 14.007 16.2719L12.8218 18.6423C12.6235 19.039 12.9159 19.5 13.3514 19.5C13.5688 19.5 13.7781 19.38 13.8819 19.1723L15.0671 16.802C15.2134 16.5092 15.0948 16.1533 14.8021 16.0069Z" fill="#369DF7"/>
<path d="M4.13543 16.0069C3.84273 15.8606 3.48673 15.9792 3.3404 16.2719L2.15522 18.6423C1.95685 19.039 2.24929 19.5 2.68481 19.5C2.90218 19.5 3.11147 19.38 3.21529 19.1723L4.40047 16.802C4.5468 16.5092 4.42817 16.1533 4.13543 16.0069Z" fill="#369DF7"/>
</g>
<defs>
<clipPath id="clip0_280_27774">
<rect width="19" height="19" fill="white" transform="translate(0 0.5)"/>
</clipPath>
</defs>
</svg>
