<svg width="18" height="21" viewBox="0 0 18 21" fill="none" xmlns="http://www.w3.org/2000/svg">
<g clip-path="url(#clip0_280_28189)">
<path d="M10.892 18.0479C10.5797 18.7404 10.3733 19.4919 10.2942 20.2799L16.9031 18.875C17.2154 18.1827 17.4217 17.4311 17.501 16.643L10.892 18.0479Z" fill="#629836"/>
<path d="M16.9031 14.6662C17.2154 13.9738 17.4219 13.2222 17.501 12.4341L12.3528 13.529V11.4242L16.903 10.4572C17.2153 9.76491 17.4217 9.01326 17.5008 8.22519L12.3526 9.31918V1.74951C11.5638 2.19243 10.8632 2.78201 10.2937 3.47745V9.75697L8.23479 10.1946V0.719971C7.44594 1.16274 6.74536 1.75247 6.17587 2.44791V10.6321L1.56902 11.611C1.25672 12.3033 1.05012 13.055 0.97088 13.8431L6.17587 12.7369V15.3876L0.597705 16.573C0.285403 17.2653 0.0789655 18.0169 -0.00012207 18.805L5.83866 17.5642C6.31396 17.4654 6.72248 17.1843 6.98807 16.7976L8.05887 15.2101V15.2098C8.17003 15.0456 8.23479 14.8475 8.23479 14.6342V12.2993L10.2937 11.8617V16.0714L16.903 14.6658L16.9031 14.6662Z" fill="#629836"/>
</g>
<defs>
<clipPath id="clip0_280_28189">
<rect width="17.5011" height="19.56" fill="white" transform="translate(0 0.719971)"/>
</clipPath>
</defs>
</svg>
