<svg width="24" height="25" viewBox="0 0 24 25" fill="none" xmlns="http://www.w3.org/2000/svg">
<path d="M10.7679 15V18C10.7679 18.414 10.4319 18.75 10.0179 18.75C9.60394 18.75 9.26794 18.414 9.26794 18V15C9.26794 14.586 9.60394 14.25 10.0179 14.25C10.4319 14.25 10.7679 14.586 10.7679 15ZM14.0179 14.25C13.6039 14.25 13.2679 14.586 13.2679 15V18C13.2679 18.414 13.6039 18.75 14.0179 18.75C14.4319 18.75 14.7679 18.414 14.7679 18V15C14.7679 14.586 14.4319 14.25 14.0179 14.25ZM20.2271 11.948L19.535 18.873C19.308 21.145 18.088 22.25 15.804 22.25H8.23401C5.95001 22.25 4.72905 21.146 4.50305 18.873L3.81299 11.969C2.89199 11.524 2.25098 10.589 2.25098 9.5C2.25098 7.983 3.48398 6.75 5.00098 6.75H7.15796L9.35901 3.112C9.57301 2.758 10.032 2.644 10.389 2.859C10.743 3.073 10.857 3.53501 10.642 3.88901L8.91101 6.75101H15.062L13.3571 3.885C13.1451 3.529 13.262 3.069 13.618 2.857C13.974 2.644 14.434 2.763 14.646 3.118L16.808 6.752H19C20.517 6.752 21.75 7.985 21.75 9.502C21.75 10.573 21.1261 11.495 20.2271 11.948ZM3.75 9.5C3.75 10.189 4.311 10.75 5 10.75H19C19.689 10.75 20.25 10.189 20.25 9.5C20.25 8.811 19.689 8.25 19 8.25H5C4.311 8.25 3.75 8.811 3.75 9.5ZM18.6899 12.25H5.34705L5.99402 18.724C6.12602 20.038 6.52103 20.75 8.23303 20.75H15.803C17.506 20.75 17.913 20.007 18.042 18.724L18.6899 12.25Z" fill="#25314C"/>
</svg>
