<svg width="20" height="20" viewBox="0 0 20 20" fill="none" xmlns="http://www.w3.org/2000/svg">
<path d="M18.125 7.50002C18.125 6.23586 17.0975 5.20836 15.8333 5.20836H14.0558L12.2533 2.18002C12.0766 1.88419 11.6942 1.78502 11.3967 1.96252C11.1009 2.13918 11.0025 2.52252 11.1792 2.81918L12.6008 5.20752H7.47498L8.91754 2.82252C9.09671 2.52752 9.00166 2.14335 8.70667 1.96418C8.40916 1.78502 8.02664 1.88002 7.84831 2.17502L6.0142 5.20669H4.16667C2.9025 5.20669 1.875 6.23419 1.875 7.49836C1.875 8.40586 2.40918 9.18502 3.17668 9.55585L3.75163 15.3092C3.94079 17.2025 4.95753 18.1234 6.86086 18.1234H13.1691C15.0725 18.1234 16.09 17.2034 16.2784 15.3092L16.855 9.53835C17.605 9.16252 18.125 8.39419 18.125 7.50002ZM4.16667 6.45835H15.8333C16.4075 6.45835 16.875 6.92586 16.875 7.50002C16.875 8.07419 16.4075 8.54169 15.8333 8.54169H4.16667C3.5925 8.54169 3.125 8.07419 3.125 7.50002C3.125 6.92586 3.5925 6.45835 4.16667 6.45835ZM15.0358 15.1867C14.9283 16.2559 14.5891 16.875 13.17 16.875H6.86167C5.43501 16.875 5.10583 16.2817 4.99583 15.1867L4.45669 9.79169H15.5759L15.0358 15.1867ZM12.2917 13.3334C12.2917 13.6784 12.0117 13.9584 11.6667 13.9584H10.625V15C10.625 15.345 10.345 15.625 10 15.625C9.655 15.625 9.375 15.345 9.375 15V13.9584H8.33333C7.98833 13.9584 7.70833 13.6784 7.70833 13.3334C7.70833 12.9884 7.98833 12.7084 8.33333 12.7084H9.375V11.6667C9.375 11.3217 9.655 11.0417 10 11.0417C10.345 11.0417 10.625 11.3217 10.625 11.6667V12.7084H11.6667C12.0117 12.7084 12.2917 12.9884 12.2917 13.3334Z" fill="#629836"/>
</svg>
