<svg width="12" height="12" viewBox="0 0 12 12" fill="none" xmlns="http://www.w3.org/2000/svg">
<g clip-path="url(#clip0_280_28203)">
<path d="M1.69316 9.41473L0.573357 10.5345C0.417768 10.6901 0.417768 10.9424 0.573357 11.0979C0.728945 11.2535 0.981191 11.2535 1.13676 11.0979L2.25656 9.97814C1.99937 9.87562 1.79565 9.6719 1.69316 9.41473Z" fill="#E78244"/>
<path d="M10.6223 1.1421L10.6123 1.05902L10.5292 1.04897C9.85977 0.967922 9.08302 1.2785 8.50204 1.85949C7.92111 2.4405 7.61053 3.21725 7.69154 3.88666L7.70159 3.96973L7.78466 3.97978C7.85505 3.9883 7.92665 3.99249 7.99905 3.99249C8.61528 3.99249 9.29194 3.68913 9.81181 3.16924C10.3928 2.58827 10.7034 1.8115 10.6223 1.1421Z" fill="#E78244"/>
<path d="M7.77618 0.408746C7.64991 0.282453 7.44519 0.282453 7.31891 0.408746L6.35253 1.37515C5.84791 1.74713 5.48385 2.41275 5.38743 3.15765C5.28195 3.97247 5.51018 4.7773 5.98304 5.25801L6.04172 5.31769L6.11366 5.27494C6.6933 4.93042 7.11891 4.21024 7.22436 3.39542C7.30365 2.78279 7.19428 2.17585 6.93418 1.70802L7.77618 0.866016C7.90246 0.739744 7.90246 0.535018 7.77618 0.408746Z" fill="#E78244"/>
<path d="M2.73058 5.19332L2.6719 5.13367L2.59996 5.17642C2.02032 5.52091 1.5947 6.2411 1.48923 7.05594C1.38376 7.87077 1.61199 8.67557 2.08485 9.1563L2.14352 9.21595L2.21546 9.1732C2.79511 8.82868 3.22072 8.1085 3.32617 7.29368C3.43164 6.47887 3.20343 5.67403 2.73058 5.19332Z" fill="#E78244"/>
<path d="M4.6798 3.24404L4.62112 3.18439L4.54918 3.22714C3.96953 3.57163 3.54392 4.29182 3.43845 5.10666C3.33298 5.9215 3.56121 6.72631 4.03407 7.20702L4.09274 7.26667L4.16468 7.22392C4.74433 6.87941 5.16994 6.15922 5.27539 5.3444C5.38086 4.52959 5.15265 3.72475 4.6798 3.24404Z" fill="#E78244"/>
<path d="M6.47808 8.94078C5.99734 8.46794 5.19247 8.23973 4.37771 8.34518C3.5629 8.45065 2.84269 8.87627 2.4982 9.45591L2.45544 9.52785L2.5151 9.58653C2.91819 9.98301 3.54914 10.2075 4.22279 10.2075C4.35253 10.2075 4.48389 10.1992 4.61546 10.1821C5.4303 10.0766 6.15048 9.65106 6.49498 9.07139L6.53773 8.99945L6.47808 8.94078Z" fill="#E78244"/>
<path d="M8.42729 6.99153C7.94656 6.51868 7.14164 6.29042 6.32693 6.39592C5.51211 6.50139 4.79191 6.927 4.44741 7.50665L4.40466 7.57859L4.46432 7.63726C4.86741 8.03375 5.49836 8.25823 6.172 8.25823C6.30175 8.25823 6.43311 8.24991 6.56468 8.23288C7.37952 8.1274 8.0997 7.70181 8.4442 7.12215L8.48695 7.05021L8.42729 6.99153Z" fill="#E78244"/>
<path d="M11.2626 3.89514C11.1363 3.76884 10.9316 3.76884 10.8053 3.89514L9.9633 4.73714C9.49545 4.47702 8.88847 4.36763 8.27591 4.44693C7.46109 4.55241 6.74088 4.97802 6.39639 5.55766L6.35364 5.6296L6.41329 5.68828C6.81638 6.08477 7.44734 6.30925 8.12098 6.30925C8.25072 6.30925 8.38208 6.30093 8.51365 6.28389C9.25858 6.18747 9.92421 5.82341 10.2962 5.31877L11.2626 4.35241C11.3888 4.22613 11.3888 4.02141 11.2626 3.89514Z" fill="#E78244"/>
</g>
<defs>
<clipPath id="clip0_280_28203">
<rect width="10.9006" height="10.9006" fill="white" transform="translate(0.456665 0.314026)"/>
</clipPath>
</defs>
</svg>
