<svg width="26" height="26" viewBox="0 0 26 26" fill="none" xmlns="http://www.w3.org/2000/svg">
<path d="M23.9375 14.3296C23.9375 19.651 19.0417 24.9791 13 24.9791C6.95833 24.9791 2.0625 19.651 2.0625 14.3296C2.0625 9.00829 6.95833 6.22913 13 6.22913C19.0417 6.22913 23.9375 9.00777 23.9375 14.3296Z" fill="#FF1F1F"/>
<path d="M14.2187 5.18745C14.3223 5.36808 14.4371 5.54203 14.5625 5.70828C14.563 5.84521 14.5364 5.98088 14.4842 6.10748C14.432 6.23408 14.3553 6.3491 14.2585 6.44593C14.1616 6.54275 14.0466 6.61946 13.92 6.67164C13.7934 6.72382 13.6578 6.75043 13.5208 6.74995H12.9375C12.7453 6.75183 12.5564 6.69959 12.3924 6.5992C12.2285 6.49881 12.0961 6.35432 12.0104 6.18224C11.8533 5.84955 11.7345 5.50009 11.6562 5.14057C11.2865 3.55203 11.3281 1.3437 12.1354 1.02078H13.9583C13.6571 1.6835 13.5234 2.41007 13.5688 3.1366C13.6142 3.86314 13.8374 4.56739 14.2187 5.18745Z" fill="#00AC0D"/>
<path d="M15.0833 5.18744C16.026 5.1614 17.6615 5.46348 18.2083 6.22911C19.2135 7.63536 21.1875 6.81244 21.3281 6.75515C20.2865 8.69265 16.125 7.79161 16.125 7.79161C16.6458 10.2239 15.6042 11.4374 15.6042 11.4374C14.0417 11.4374 12.4792 8.31244 12.4792 8.31244C11.4375 8.79681 9.875 11.4374 9.875 11.4374C7.79167 9.97911 8.83333 8.31244 8.83333 8.31244C8.09501 8.32214 7.36755 8.13406 6.72645 7.76772C6.08535 7.40138 5.55398 6.87013 5.1875 6.22911C7.79167 6.22911 7.27083 6.26556 8.83333 5.70827C9.6547 5.35216 10.5424 5.17463 11.4375 5.18744L11.6563 5.14056C11.7345 5.50008 11.8533 5.84954 12.0104 6.18223C12.0961 6.35431 12.2285 6.4988 12.3924 6.59919C12.5564 6.69958 12.7453 6.75182 12.9375 6.74994H13.5208C13.6578 6.75042 13.7934 6.72381 13.92 6.67163C14.0466 6.61945 14.1617 6.54274 14.2585 6.44592C14.3553 6.34909 14.432 6.23407 14.4842 6.10747C14.5364 5.98087 14.563 5.8452 14.5625 5.70827C14.4371 5.54202 14.3223 5.36807 14.2188 5.18744H15.0833Z" fill="#007700"/>
<path d="M23.9375 14.3296C23.9375 19.651 19.0417 24.9791 13 24.9791C6.95833 24.9791 2.0625 19.651 2.0625 14.3296C2.0625 9.00829 6.95833 6.22913 13 6.22913C19.0417 6.22913 23.9375 9.00777 23.9375 14.3296Z" fill="#FF1F1F"/>
<path d="M4.14588 11.7255C4.13766 10.6587 4.36419 9.60325 4.80942 8.63382C3.93661 9.30097 3.23313 10.1642 2.75592 11.1538C2.27871 12.1433 2.04118 13.2313 2.06254 14.3297C2.06254 19.651 6.95837 24.9791 13 24.9791C14.9359 24.9403 16.8287 24.4011 18.4944 23.4141C20.1601 22.427 21.5421 21.0257 22.5058 19.3463C20.507 21.2633 17.8527 22.3464 15.0834 22.375C9.04171 22.375 4.14588 17.0468 4.14588 11.7255Z" fill="#CB0303"/>
<path d="M14.2187 5.18745C14.3223 5.36808 14.4371 5.54203 14.5625 5.70828C14.563 5.84521 14.5364 5.98088 14.4842 6.10748C14.432 6.23408 14.3553 6.3491 14.2585 6.44593C14.1616 6.54275 14.0466 6.61946 13.92 6.67164C13.7934 6.72382 13.6578 6.75043 13.5208 6.74995H12.9375C12.7453 6.75183 12.5564 6.69959 12.3924 6.5992C12.2285 6.49881 12.0961 6.35432 12.0104 6.18224C11.8533 5.84955 11.7345 5.50009 11.6562 5.14057C11.2865 3.55203 11.3281 1.3437 12.1354 1.02078H13.9583C13.6571 1.6835 13.5234 2.41007 13.5688 3.1366C13.6142 3.86314 13.8374 4.56739 14.2187 5.18745Z" fill="#008906"/>
<path d="M15.0833 5.18744C16.026 5.1614 17.6615 5.46348 18.2083 6.22911C19.2135 7.63536 21.1875 6.81244 21.3281 6.75515C20.2865 8.69265 16.125 7.79161 16.125 7.79161C16.6458 10.2239 15.6042 11.4374 15.6042 11.4374C14.0417 11.4374 12.4792 8.31244 12.4792 8.31244C11.4375 8.79681 9.875 11.4374 9.875 11.4374C7.79167 9.97911 8.83333 8.31244 8.83333 8.31244C8.09501 8.32214 7.36755 8.13406 6.72645 7.76772C6.08535 7.40138 5.55398 6.87013 5.1875 6.22911C7.79167 6.22911 7.27083 6.26556 8.83333 5.70827C9.6547 5.35216 10.5424 5.17463 11.4375 5.18744L11.6563 5.14056C11.7345 5.50008 11.8533 5.84954 12.0104 6.18223C12.0961 6.35431 12.2285 6.4988 12.3924 6.59919C12.5564 6.69958 12.7453 6.75182 12.9375 6.74994H13.5208C13.6578 6.75042 13.7934 6.72381 13.92 6.67163C14.0466 6.61945 14.1617 6.54274 14.2585 6.44592C14.3553 6.34909 14.432 6.23407 14.4842 6.10747C14.5364 5.98087 14.563 5.8452 14.5625 5.70827C14.4371 5.54202 14.3223 5.36807 14.2188 5.18744H15.0833Z" fill="#007700"/>
<path d="M9.87503 12.4791C9.87503 12.4791 11.2047 9.83852 12.3813 9.35414C12.3813 9.35414 14.1459 12.4791 15.9104 12.4791C16.3164 11.8741 16.5916 11.191 16.7182 10.4735C16.8448 9.75597 16.8202 9.01991 16.6459 8.31248C16.6459 8.31248 19.411 9.17081 21.1881 8.63175C20.9283 8.42708 20.6572 8.23719 20.3761 8.063C20.1159 8.03439 19.8616 7.96625 19.6219 7.86092C18.4618 8.05112 17.2767 8.02765 16.125 7.79164C16.6459 10.2239 15.6042 11.4375 15.6042 11.4375C14.0417 11.4375 12.4792 8.31248 12.4792 8.31248C11.4375 8.79685 9.87503 11.4375 9.87503 11.4375C7.7917 9.97914 8.83337 8.31248 8.83337 8.31248C7.98748 8.32394 7.15853 8.07502 6.45889 7.59946C6.04225 7.80061 5.64069 8.0316 5.25732 8.2906C6.0445 8.67754 6.9151 8.86396 7.7917 8.83331C7.7917 8.83331 7.52191 11.0208 9.87503 12.4791Z" fill="#AA1313"/>
<path d="M16.6459 8.31244C16.7715 8.83024 16.8178 9.36408 16.7834 9.89578C19.8287 11.1536 21.8542 13.5161 21.8542 16.9338C21.8445 18.129 21.6103 19.3117 21.1636 20.4203C21.6366 20.0955 22.0852 19.7366 22.5058 19.3463C22.3901 19.5432 22.2686 19.7369 22.1412 19.9275L22.1631 19.8963L22.2365 19.7843C22.3089 19.6729 22.3787 19.5609 22.4448 19.4473C22.4704 19.4046 22.4969 19.3619 22.5209 19.3187C22.5849 19.2093 22.6464 19.0994 22.7063 18.988C22.7318 18.9406 22.7584 18.8932 22.7823 18.8453C22.8379 18.7373 22.8921 18.6284 22.9448 18.5187C22.9693 18.4666 22.9969 18.4145 23.0183 18.3624C23.0672 18.2583 23.1131 18.1489 23.1584 18.0416C23.1823 17.9854 23.2063 17.9291 23.2287 17.8723C23.2704 17.7682 23.3094 17.664 23.348 17.5572C23.3698 17.4973 23.3922 17.4374 23.4125 17.377C23.4485 17.2729 23.4808 17.1687 23.5131 17.0645C23.5318 17.002 23.5521 16.94 23.5698 16.877C23.5995 16.7729 23.6256 16.6687 23.6516 16.5645C23.6677 16.4999 23.6855 16.4354 23.7 16.3703C23.724 16.2661 23.7438 16.1619 23.7641 16.0578C23.7766 15.9927 23.7912 15.9275 23.8021 15.8619C23.8209 15.7578 23.8349 15.6479 23.8495 15.5411C23.8584 15.4775 23.8688 15.4145 23.8761 15.3515C23.8896 15.2359 23.8985 15.1203 23.9073 15.0041C23.9115 14.9494 23.9178 14.8942 23.9214 14.8395C23.9315 14.6687 23.9365 14.498 23.9365 14.3275C23.956 13.0604 23.6361 11.811 23.0099 10.7092C22.3838 9.60737 21.4742 8.69315 20.3756 8.0614C20.6565 8.23542 20.9274 8.42513 21.187 8.62963C19.411 9.17078 16.6459 8.31244 16.6459 8.31244Z" fill="#FF5D03"/>
<path d="M21.188 8.63174C20.9284 8.42724 20.6575 8.23753 20.3766 8.06351C20.2203 7.96819 20.0724 7.87028 19.9109 7.78226C19.8161 7.8109 19.7214 7.83955 19.6224 7.86142C19.513 7.88538 19.4021 7.90517 19.2901 7.92236C19.2297 7.93174 19.1698 7.93955 19.1089 7.94684C19.0479 7.95413 18.9724 7.96247 18.9042 7.96819C18.8437 7.97392 18.7839 7.97965 18.7234 7.98382C18.6151 7.99059 18.5078 7.99476 18.4005 7.99736C18.3344 7.99736 18.2698 7.99736 18.2047 7.99736C18.1396 7.99736 18.0859 7.99736 18.0271 7.99736C17.9682 7.99736 17.901 7.99736 17.8385 7.99267C17.7401 7.98903 17.6432 7.98382 17.549 7.97757L17.3703 7.96403L17.2187 7.94788L17.0583 7.93174C16.987 7.92392 16.9188 7.91559 16.8536 7.90726C16.7979 7.90049 16.7495 7.89372 16.6974 7.88642L16.5734 7.86819L16.4724 7.85257L16.3375 7.82965L16.2625 7.81611L16.1865 7.80153L16.1573 7.79632L16.125 7.79163C16.2653 8.4115 16.3035 9.0501 16.238 9.68226C16.424 9.74892 16.6026 9.82184 16.7833 9.8958C16.8178 9.36411 16.7714 8.83026 16.6458 8.31247C16.6458 8.31247 19.4109 9.1708 21.188 8.63174Z" fill="#CB0303"/>
<path d="M19.386 6.99213C19.4433 7.00411 19.5 7.01348 19.5573 7.02129C19.5 7.01348 19.4428 7.00411 19.386 6.99213Z" fill="#00AC0D"/>
<path d="M20.7812 6.93219C20.8234 6.92126 20.8646 6.91084 20.9031 6.8999C20.8646 6.91084 20.8234 6.92178 20.7812 6.93219Z" fill="#00AC0D"/>
<path d="M20.5588 6.98171C20.6193 6.96973 20.6776 6.95723 20.7333 6.94421C20.6776 6.95828 20.6193 6.96973 20.5588 6.98171Z" fill="#00AC0D"/>
<path d="M18.9141 6.83014C18.9661 6.8541 19.013 6.87701 19.0635 6.89628C19.0135 6.87701 18.9635 6.8541 18.9141 6.83014Z" fill="#00AC0D"/>
<path d="M14.5453 5.87964C14.5564 5.82317 14.5621 5.76581 14.5625 5.70828C14.5616 5.76578 14.5558 5.8231 14.5453 5.87964Z" fill="#00AC0D"/>
<path d="M16.1385 7.8666C16.1333 7.84107 16.1307 7.81451 16.125 7.7916C16.1307 7.81764 16.1318 7.84003 16.137 7.86607L16.1385 7.8666Z" fill="#00AC0D"/>
<path d="M18.687 6.69785C18.7338 6.73014 18.7812 6.76139 18.8297 6.78847C18.7812 6.76035 18.7338 6.7291 18.687 6.69785Z" fill="#00AC0D"/>
<path d="M19.1484 6.927C19.2005 6.94471 19.2526 6.96034 19.3047 6.97336C19.2536 6.95825 19.201 6.94471 19.1484 6.927Z" fill="#00AC0D"/>
<path d="M20.0881 7.04108C20.0141 7.04524 19.9381 7.04681 19.8615 7.04524C19.9386 7.04681 20.0141 7.04524 20.0881 7.04108Z" fill="#00AC0D"/>
<path d="M19.0635 6.89633C19.0917 6.90727 19.1203 6.91717 19.1484 6.92706C19.1203 6.91717 19.0937 6.90623 19.0635 6.89633Z" fill="#00CE23"/>
<path d="M14.5104 6.02495C14.526 5.97745 14.5382 5.92889 14.5468 5.87964C14.5376 5.92877 14.5255 5.9773 14.5104 6.02495Z" fill="#00CE23"/>
<path d="M19.3068 6.97339C19.3333 6.98016 19.3588 6.98641 19.3859 6.99214C19.3594 6.98641 19.3333 6.98016 19.3068 6.97339Z" fill="#00CE23"/>
<path d="M18.6068 6.64163C18.6328 6.66194 18.6588 6.67861 18.687 6.69684C18.6599 6.67861 18.6328 6.66194 18.6068 6.64163Z" fill="#00CE23"/>
<path d="M21.2291 6.7937L21.1567 6.81974C21.1838 6.81037 21.2088 6.80203 21.2291 6.7937Z" fill="#00CE23"/>
<path d="M19.8614 7.04525C19.8458 7.04525 19.8297 7.04525 19.814 7.04525C19.8297 7.04369 19.8458 7.04525 19.8614 7.04525Z" fill="#00CE23"/>
<path d="M21.2292 6.79374C21.2078 6.80207 21.1839 6.8104 21.1568 6.81978L21.1125 6.8354L21.0458 6.85728L20.962 6.8828L20.9031 6.89999C20.8646 6.91092 20.8234 6.92134 20.7812 6.93228L20.7333 6.94426C20.6776 6.95728 20.6193 6.96978 20.5589 6.98176L20.5417 6.98488C20.3936 7.01327 20.2438 7.03206 20.0932 7.04113H20.088C20.0141 7.0453 19.9385 7.04686 19.8615 7.0453C19.8458 7.0453 19.8297 7.0453 19.8141 7.0453C19.751 7.0453 19.688 7.03905 19.6245 7.03228C19.6021 7.03228 19.5797 7.02655 19.5573 7.02342C19.5 7.01561 19.4432 7.00624 19.3859 6.99426C19.3594 6.98853 19.3339 6.98228 19.3068 6.97551C19.2547 6.96249 19.2026 6.94686 19.1505 6.92915C19.1224 6.91926 19.0938 6.90936 19.0656 6.89842C19.0135 6.87915 18.9656 6.85624 18.9161 6.83228C18.888 6.81821 18.8599 6.80467 18.8318 6.78957C18.7833 6.76249 18.7359 6.73124 18.6891 6.69894C18.662 6.68071 18.637 6.66405 18.6089 6.64374C18.5599 6.60624 18.513 6.56301 18.4661 6.51926C18.4448 6.49842 18.4219 6.48071 18.401 6.45936C18.3312 6.38749 18.2668 6.31055 18.2083 6.22915C17.6615 5.46353 16.026 5.16144 15.0833 5.18749H14.2188C14.3223 5.36811 14.4371 5.54207 14.5625 5.70832C14.5621 5.76585 14.5563 5.82321 14.5453 5.87967C14.5367 5.92892 14.5245 5.97749 14.5089 6.02499C15.5849 6.6979 18.3682 8.09061 21.2292 6.79374Z" fill="#00CE23"/>
<path d="M14.451 6.17028L14.4448 6.16455C14.3831 6.29333 14.2952 6.40777 14.1867 6.50052C14.0781 6.59327 13.9514 6.66228 13.8146 6.70309C13.9519 6.66337 14.0794 6.59547 14.1889 6.50373C14.2985 6.412 14.3878 6.29843 14.451 6.17028Z" fill="#00AC0D"/>
<path d="M15.6719 11.3458C15.889 11.0333 16.5432 9.87234 16.137 7.86609C15.4326 7.72668 14.738 7.54139 14.0578 7.3114L15.6719 11.3458Z" fill="#00CE23"/>
<path d="M21.2292 6.79371C18.3683 8.09059 15.5849 6.69528 14.5105 6.02496C14.4948 6.07475 14.4754 6.12332 14.4527 6.17028C14.3643 6.34215 14.231 6.48683 14.0669 6.58891C13.9028 6.691 13.7141 6.74666 13.5209 6.74996H12.9375C12.7667 6.74804 12.5988 6.7046 12.4485 6.6234C12.9654 6.89607 13.5036 7.12617 14.0579 7.31142C14.7381 7.54141 15.4326 7.72671 16.137 7.86611C16.1318 7.84007 16.1308 7.81767 16.125 7.79163C16.125 7.79163 20.2865 8.69267 21.3282 6.75517L21.2292 6.79371Z" fill="#00AC0D"/>
<path d="M11.5495 6.03746C11.8083 6.24054 12.083 6.42255 12.3709 6.58173C12.2161 6.48441 12.0914 6.34614 12.0104 6.18225C11.9584 6.08277 11.9172 5.96298 11.8729 5.84579C11.7766 5.90986 11.6662 5.97392 11.5495 6.03746Z" fill="#00AC0D"/>
<path d="M11.6562 5.14056C11.6917 5.29161 11.7328 5.43119 11.776 5.56556C11.7339 5.42858 11.6917 5.29161 11.6562 5.14056Z" fill="#00AC0D"/>
<path d="M11.776 5.56558C11.8067 5.66454 11.839 5.75569 11.8729 5.84579C11.839 5.75621 11.8073 5.66194 11.776 5.56558Z" fill="#008906"/>
<path d="M11.5494 6.03744C11.6661 5.9739 11.7765 5.90983 11.8729 5.84577C11.839 5.75567 11.8067 5.66452 11.776 5.56556C11.7328 5.43119 11.6916 5.29161 11.6562 5.14056L11.4375 5.18744C11.1968 5.18744 10.9739 5.20254 10.7604 5.22338C10.9789 5.53454 11.2452 5.80927 11.5494 6.03744Z" fill="#00AC0D"/>
<path d="M12.9375 6.74996C12.7957 6.75035 12.6553 6.72177 12.5249 6.66597C12.3945 6.61018 12.2769 6.52834 12.1792 6.42548C11.3566 6.94217 10.7027 7.68776 10.2977 8.57076C9.89276 9.45377 9.75437 10.4358 9.89953 11.3963C10.0954 11.0729 11.5115 8.76246 12.4792 8.31246L13 6.74996H12.9375Z" fill="#008906"/>
<path d="M12.3708 6.58173C12.2021 6.48798 12.0448 6.39111 11.8958 6.29163L10.3469 7.84058C10.2909 7.89653 10.2483 7.96451 10.2225 8.03936C10.1967 8.11421 10.1883 8.19396 10.198 8.27254C10.2076 8.35112 10.235 8.42648 10.2782 8.49287C10.3213 8.55926 10.379 8.61494 10.4469 8.65569L10.8573 8.90204C10.9506 8.95807 11.0591 8.98347 11.1675 8.97469C11.276 8.96591 11.3789 8.92339 11.462 8.85308L13.5235 7.10829C13.1559 6.96784 12.797 6.80593 12.4485 6.6234C12.4224 6.60933 12.3958 6.59788 12.3708 6.58173Z" fill="#025602"/>
<path d="M13.5209 6.74996H12.9375C12.851 6.74976 12.7648 6.73802 12.6813 6.71507C12.6003 6.69393 12.5221 6.66316 12.4485 6.6234C12.797 6.80593 13.156 6.96784 13.5235 7.10829L14.5625 6.22913L14.4365 6.19736C14.3487 6.36415 14.217 6.50378 14.0557 6.60117C13.8943 6.69857 13.7094 6.75002 13.5209 6.74996Z" fill="#016601"/>
<path d="M12.3708 6.58171C12.295 6.53373 12.226 6.47574 12.1656 6.40932C12.1026 6.34174 12.05 6.26521 12.0094 6.18223V6.17859L11.8964 6.29161C12.0453 6.39109 12.2021 6.48796 12.3708 6.58171Z" fill="#016601"/>
<path d="M14.5625 5.70828C14.4372 5.54203 14.3224 5.36808 14.2188 5.18745C13.8374 4.56739 13.6142 3.86314 13.5688 3.1366C13.5234 2.41007 13.6572 1.6835 13.9584 1.02078H12.1354C12.0787 1.04474 12.026 1.07723 11.9792 1.11714C12.1307 3.70412 13.2276 5.70828 14.5625 5.70828Z" fill="#00CE23"/>
<path d="M20.616 11.771C20.9516 11.4354 20.8449 10.7846 20.3777 10.3173C19.9105 9.85014 19.2597 9.74346 18.9241 10.0791C18.5885 10.4147 18.6952 11.0655 19.1624 11.5327C19.6296 11.9999 20.2804 12.1066 20.616 11.771Z" fill="#F6FAFD"/>
<path d="M22.276 11.8691C22.4438 11.7013 22.3905 11.376 22.157 11.1425C21.9235 10.909 21.5982 10.8557 21.4304 11.0235C21.2626 11.1913 21.3159 11.5167 21.5494 11.7502C21.7829 11.9837 22.1082 12.0369 22.276 11.8691Z" fill="#F6FAFD"/>
<path d="M17.0687 7.17901C17.2365 7.01121 17.1833 6.68589 16.9498 6.45239C16.7163 6.21889 16.391 6.16563 16.2231 6.33343C16.0553 6.50124 16.1086 6.82656 16.3421 7.06006C16.5756 7.29356 16.9009 7.34682 17.0687 7.17901Z" fill="#B3FFD2"/>
<path d="M20.3693 12.9593C20.4533 12.8753 20.4267 12.7126 20.31 12.5959C20.1932 12.4791 20.0305 12.4526 19.9465 12.5366C19.8625 12.6206 19.889 12.7833 20.0058 12.9001C20.1225 13.0168 20.2853 13.0434 20.3693 12.9593Z" fill="#F6FAFD"/>
<path d="M15.6833 6.18588C15.7673 6.10188 15.7407 5.93913 15.624 5.82238C15.5072 5.70563 15.3445 5.67909 15.2605 5.76309C15.1765 5.84709 15.203 6.00984 15.3198 6.12659C15.4365 6.24334 15.5993 6.26988 15.6833 6.18588Z" fill="#B3FFD2"/>
<path d="M9.67274 23.2267C10.0083 22.8911 9.90166 22.2403 9.43446 21.7731C8.96725 21.3059 8.31645 21.1992 7.98084 21.5348C7.64523 21.8704 7.75191 22.5212 8.21912 22.9884C8.68632 23.4556 9.33713 23.5623 9.67274 23.2267Z" fill="#AA1313"/>
<path d="M7.16669 21.2405C7.33449 21.0727 7.28123 20.7474 7.04773 20.5139C6.81423 20.2804 6.48891 20.2271 6.32111 20.3949C6.1533 20.5627 6.20656 20.888 6.44006 21.1215C6.67356 21.355 6.99889 21.4083 7.16669 21.2405Z" fill="#AA1313"/>
<path d="M7.86451 20.7687C7.94851 20.6847 7.92196 20.522 7.80521 20.4052C7.68846 20.2885 7.52572 20.2619 7.44171 20.3459C7.35771 20.4299 7.38426 20.5927 7.50101 20.7094C7.61776 20.8262 7.7805 20.8527 7.86451 20.7687Z" fill="#AA1313"/>
</svg>
