<svg width="87" height="87" viewBox="0 0 87 87" fill="none" xmlns="http://www.w3.org/2000/svg">
<path d="M86.4693 47.2726C85.8651 53.5403 83.8959 59.5998 80.6999 65.0261C77.5058 70.4523 73.1633 75.114 67.9763 78.6841C62.7893 82.2542 56.8834 84.6464 50.6736 85.6929C44.4656 86.7393 38.1028 86.4147 32.0313 84.7418C25.9616 83.0687 20.3305 80.0879 15.533 76.0084C10.7373 71.929 6.88985 66.8494 4.26359 61.1262C1.63915 55.4029 0.295986 49.1745 0.332386 42.8778C0.368786 36.581 1.78111 30.3682 4.47289 24.6754C12.0368 8.72131 28.9974 -1.57625 47.5905 0.198253C71.3306 2.46233 88.7389 23.5398 86.4693 47.2726Z" fill="#FFEAD6"/>
<path d="M49.4205 43.4385C62.4059 45.8148 64.1033 49.5687 64.3092 62.7432C64.3223 63.5843 64.3292 63.7315 64.3326 63.6572C64.3322 63.8806 64.3317 64.2088 64.3317 64.6807C64.3256 64.693 61.2224 70.9999 43.3326 71C25.4247 71 22.3326 64.6807 22.3326 64.6807C22.3326 63.9462 22.3315 63.5248 22.3307 63.2969C22.3342 63.418 22.3435 63.3618 22.3629 62.3154C22.5996 49.4872 24.4 45.7889 37.2438 43.4385C37.2618 43.4617 39.0933 45.7998 43.3326 45.7998C47.5782 45.7996 49.408 43.4546 49.4205 43.4385ZM43.3326 15C52.8167 15.0001 54.4508 21.1314 54.4508 28.6943C54.4506 36.2569 49.4729 42.3875 43.3326 42.3877C37.192 42.3877 32.2137 36.257 32.2135 28.6943C32.2135 21.1313 33.8483 15 43.3326 15Z" fill="#FFA654"/>
</svg>
