<svg width="50" height="50" viewBox="0 0 50 50" fill="none" xmlns="http://www.w3.org/2000/svg">
<rect width="50" height="50" rx="10" fill="#133BB7" fill-opacity="0.05"/>
<path fill-rule="evenodd" clip-rule="evenodd" d="M23.0999 29.3202H20.8269L22.2486 20.7592H24.5214L23.0999 29.3202Z" fill="#0742A6"/>
<path fill-rule="evenodd" clip-rule="evenodd" d="M31.3397 20.9685C30.8914 20.7953 30.1803 20.604 29.3011 20.604C27.0565 20.604 25.4758 21.7697 25.4661 23.4363C25.4475 24.6659 26.5978 25.3488 27.4582 25.7588C28.3375 26.1778 28.6365 26.4512 28.6365 26.8247C28.6275 27.3982 27.9259 27.6626 27.2715 27.6626C26.364 27.6626 25.8778 27.5263 25.1389 27.2072L24.8396 27.0704L24.5215 28.9922C25.0546 29.2287 26.0367 29.4386 27.0565 29.4478C29.4414 29.4478 30.9941 28.3001 31.0125 26.5241C31.0215 25.5495 30.4141 24.8028 29.1046 24.1926C28.3096 23.8009 27.8227 23.5368 27.8227 23.136C27.832 22.7716 28.2345 22.3984 29.1319 22.3984C29.8708 22.3801 30.4137 22.5531 30.825 22.7262L31.0306 22.8171L31.3397 20.9685Z" fill="#0742A6"/>
<path d="M37.166 20.7592L39 29.3197H36.8955C36.8917 29.3013 36.6887 28.3332 36.624 28.0355H33.7061C33.6224 28.2611 33.2352 29.3018 33.2285 29.3197H30.8438L34.2197 21.4691C34.4537 20.9137 34.8661 20.7592 35.4082 20.7592H37.166ZM35.2676 23.892C35.2637 23.9023 34.547 25.797 34.3604 26.2875H36.25C36.1565 25.8594 35.7256 23.8099 35.7256 23.8099L35.5664 23.0726C35.4581 23.3801 35.2721 23.8739 35.2676 23.892Z" fill="#0742A6"/>
<path fill-rule="evenodd" clip-rule="evenodd" d="M18.9284 20.7592L16.7024 26.5969L16.4592 25.413C16.0476 24.0468 14.757 22.5625 13.3167 21.8245L15.3556 29.3111H17.7592L21.3318 20.7592H18.9284V20.7592Z" fill="#0742A6"/>
<path fill-rule="evenodd" clip-rule="evenodd" d="M14.6355 20.7592H10.9786L10.9412 20.9321C13.7938 21.6426 15.6831 23.355 16.4593 25.4133L15.6643 21.4788C15.5334 20.932 15.1312 20.7772 14.6355 20.7592Z" fill="#0742A6"/>
</svg>
