<svg width="25" height="25" viewBox="0 0 25 25" fill="none" xmlns="http://www.w3.org/2000/svg">
<g clip-path="url(#clip0_280_27789)">
<path d="M17.8519 2.45112L17.0786 2.09223C15.3914 1.3089 6.09583 -1.71166 1.69083 7.7739C-1.36917 14.3628 0.895826 18.6183 3.9136 21.1956C5.11749 22.2233 6.44083 22.9845 7.59416 23.52L7.60027 23.5228C11.6442 25.4011 19.073 27.0506 23.4392 17.8739C27.9192 8.45556 19.7053 3.38445 17.8519 2.45112Z" fill="#6BA502"/>
<path d="M17.4525 3.18001L16.7792 2.86723C15.3103 2.18501 7.19305 -0.398322 3.16249 8.27946C0.36305 14.3072 2.28138 18.1295 4.88972 20.4167C5.93027 21.3289 7.08027 21.9967 8.08416 22.4633L8.08972 22.4656C11.6114 24.1011 18.1114 25.4728 22.1019 17.075C26.1975 8.45779 19.0658 3.99557 17.4525 3.18001Z" fill="#85C800"/>
<path d="M15.7003 22.3395C13.032 22.8595 10.4375 22.1695 8.61973 21.3256L8.61418 21.3233C7.60973 20.8572 6.45973 20.1889 5.41973 19.2767C4.56695 18.5289 3.69862 17.6583 3.22362 16.5178C2.98973 15.9567 5.66807 17.8517 9.4214 19.5945C13.1747 21.3372 16.2203 22.2383 15.7003 22.3395Z" fill="#6BA502"/>
<path d="M16.9803 3.80556L16.6064 3.63167C15.7903 3.25278 11.3686 1.62945 9.90751 4.77501C8.89251 6.96001 10.1747 8.61778 11.7025 9.71778C12.312 10.1567 12.9608 10.5061 13.5186 10.7656L13.5214 10.7667C15.4781 11.675 18.967 12.6989 20.4281 9.66112C21.9281 6.54445 17.8814 4.24834 16.9803 3.80556Z" fill="#97D302"/>
<path d="M1.69083 7.77332C-1.36917 14.3622 0.895826 18.6178 3.9136 21.195L3.89694 21.1561C3.89694 21.1561 2.78749 19.9539 2.36916 19.0383C1.95083 18.1228 2.16527 17.9428 1.73971 17.3783C1.22583 16.6955 1.23638 16.4478 1.16471 15.64C1.09305 14.8328 0.608603 14.3694 0.837492 13.5228C1.06694 12.6767 0.854159 11.815 1.44305 11.0778C2.03249 10.3405 2.00527 9.59776 2.23694 8.74554C2.4686 7.89332 2.90083 7.43887 3.51249 6.62165C4.12416 5.80387 4.81249 5.1561 5.3536 4.43943C5.89471 3.72276 6.38194 3.44332 7.17749 3.17276C7.97305 2.90221 8.98638 2.41999 9.79249 2.09443C10.5986 1.76887 10.8414 1.9561 11.5986 1.84665C12.3558 1.73665 12.8264 1.71721 13.3253 1.6361C13.8242 1.55499 14.4692 1.70554 15.1514 1.90332C15.8336 2.1011 16.7742 2.4361 16.7742 2.4361L17.078 2.09165C15.3914 1.30832 6.09583 -1.71224 1.69083 7.77332Z" fill="#126B00"/>
<path d="M23.4392 17.8739C20.3792 24.4628 15.6669 25.4778 11.7508 24.835L11.7908 24.8228C11.7908 24.8228 13.4247 24.895 14.3947 24.6233C15.3647 24.3517 15.3636 24.0722 16.0692 24.0328C16.9225 23.985 17.1047 23.8167 17.768 23.3506C18.4314 22.8844 19.0975 22.9556 19.5964 22.2344C20.0953 21.5133 20.8903 21.12 21.0736 20.1944C21.2564 19.2689 21.8419 18.81 22.343 18.0833C22.8442 17.3567 22.913 16.7333 23.143 15.7383C23.373 14.7433 23.4242 13.7994 23.6225 12.9239C23.8208 12.0483 23.7203 11.4956 23.4136 10.7128C23.1069 9.93 22.8219 8.845 22.5503 8.01944C22.2786 7.19389 21.9792 7.12889 21.5747 6.47944C21.1703 5.83 20.8819 5.45778 20.6214 5.02444C20.3614 4.59111 19.8303 4.19556 19.2392 3.80167C18.648 3.40778 17.7853 2.90556 17.7853 2.90556L17.8525 2.45111C19.5075 3.21944 25.3764 6.82111 24.7114 13.5072C24.5792 14.8356 24.1692 16.3017 23.4392 17.8739Z" fill="#126B00"/>
<path d="M10.5458 20.5178C10.5458 20.5178 11.7608 18.7067 12.4358 18.2439C13.1108 17.7811 13.3086 16.8183 13.5664 15.6439C13.8242 14.4694 14.6303 12.7539 15.102 12.2344C15.5731 11.715 16.2375 10.4705 16.5197 9.20221C16.802 7.93388 16.4642 6.74166 16.7753 5.92721C17.0864 5.11277 17.1558 4.02388 16.9636 3.35944L16.9575 3.35666C16.3258 3.63833 15.5386 4.39444 15.117 5.15721C14.6953 5.91999 13.5664 6.4311 12.7797 7.46555C11.9925 8.49944 11.4703 9.80999 11.3775 10.5055C11.2847 11.2005 10.4942 12.9233 9.76306 13.8783C9.03195 14.8333 8.42418 15.6055 8.50584 16.42C8.58751 17.2344 7.98806 19.3317 7.98806 19.3317C7.98806 19.3317 7.39306 20.8405 7.54473 21.7928C7.69695 22.7455 7.45306 23.4517 7.45306 23.4517L7.73029 23.5805C7.73029 23.5805 8.12473 22.9439 8.95029 22.4455C9.77695 21.9455 10.5458 20.5178 10.5458 20.5178Z" fill="#168800"/>
<path d="M6.68029 22.0228C6.5014 21.2583 6.90307 21.3595 6.25696 20.59C5.61085 19.8206 5.31918 18.8733 5.33863 17.9645C5.35807 17.0556 5.32529 15.7006 5.32529 15.7006C5.32529 15.7006 5.51807 13.9061 5.72307 12.9128C5.92807 11.9195 6.14474 11.0856 6.83196 10.2495C7.51918 9.41334 8.09863 8.63612 8.55307 7.65168C9.00751 6.66723 9.88974 6.00946 10.8197 5.52335C11.7497 5.03723 11.9981 4.64057 12.8553 4.31223C13.712 3.98446 14.3203 4.05335 14.9175 3.73279C15.5147 3.41223 16.0614 3.1539 16.7742 3.2289L16.6642 2.81335C16.6103 2.83279 15.6381 2.42612 14.9131 2.64057C14.1881 2.85501 13.1075 2.8739 13.1075 2.8739C13.1075 2.8739 11.4147 2.81723 10.2436 3.58335C9.07252 4.34946 8.66974 5.05612 7.91418 5.24057C7.15863 5.42557 5.88918 6.23557 5.17085 7.71835C4.45252 9.20112 4.82918 9.48001 4.13418 10.1106C3.43918 10.7411 3.26752 11.1372 3.17918 12.0045C3.09029 12.8717 3.54418 13.5289 3.23252 14.6495C2.92029 15.77 2.89529 16.3689 3.21585 17.2172C3.5364 18.0656 3.80252 18.2033 3.7164 18.8189C3.63029 19.4345 3.76085 20.0161 4.42418 20.7856C5.08752 21.555 5.59418 22.3572 6.18307 22.7867L7.26474 23.3622C7.26474 23.3628 6.85918 22.7872 6.68029 22.0228Z" fill="#168800"/>
<path d="M20.0758 17.5144C20.1092 16.5772 20.5653 16.685 21.2347 15.1794C21.9042 13.6739 21.7042 12.1817 21.3575 11.485C21.0114 10.7883 21.2914 10.025 21.1208 8.63556C20.9508 7.24612 19.8153 5.98945 19.8153 5.98945C19.8153 5.98945 19.1325 5.15112 18.8286 4.45945C18.5247 3.76723 17.5864 3.28723 17.5669 3.23334L17.1786 3.41723C17.6953 3.91334 17.8508 4.49778 17.9914 5.16112C18.1319 5.82389 18.5769 6.24445 18.8792 7.11056C19.1814 7.97667 19.0386 8.42278 19.2669 9.44667C19.4953 10.4706 19.5619 11.5689 19.1036 12.5517C18.6447 13.5339 18.4247 14.4783 18.2292 15.5428C18.0336 16.6072 17.5364 17.3106 16.9097 18.1083C16.2831 18.9061 15.0364 20.2111 15.0364 20.2111C15.0364 20.2111 13.9808 21.06 13.2992 21.6611C12.6175 22.2622 11.7053 22.65 10.7008 22.6533C9.69639 22.6567 10.0319 22.8978 9.33306 23.2544C8.63361 23.6111 7.93195 23.6722 7.93195 23.6722L9.06917 24.1272C9.7775 24.3006 10.7175 24.17 11.7331 24.18C12.7486 24.19 13.2775 23.9144 13.6925 23.4517C14.1075 22.9889 14.3842 23.1033 15.2392 22.8011C16.0942 22.4983 16.5358 22.0933 17.1903 21.1317C17.8453 20.1706 18.6403 20.0928 19.2453 19.4661C19.8503 18.8389 20.0425 18.4517 20.0758 17.5144Z" fill="#168800"/>
<path d="M10.7664 20.1983C10.3319 20.0094 9.88139 19.8083 9.42083 19.5939C8.96028 19.38 8.51639 19.1639 8.09139 18.9506C8.03084 19.1822 7.98861 19.33 7.98861 19.33C7.98861 19.33 7.70861 20.0406 7.58139 20.7939C7.93528 20.9933 8.2825 21.1689 8.61417 21.3228L8.61972 21.325C8.95306 21.48 9.31306 21.6294 9.69417 21.7678C10.1858 21.1861 10.5458 20.5172 10.5458 20.5172C10.5458 20.5172 10.6303 20.3922 10.7664 20.1983Z" fill="#177700"/>
<path d="M5.34416 17.4817C3.91138 16.6811 3.08916 16.1961 3.22305 16.5178C3.6986 17.6583 4.56638 18.5289 5.41916 19.2767C5.47138 19.3228 5.52416 19.3678 5.57693 19.4122C5.40527 18.9405 5.32749 18.4472 5.33804 17.9644C5.34193 17.8133 5.3436 17.6494 5.34416 17.4817Z" fill="#177700"/>
<path d="M13.6303 21.3745C13.5147 21.4733 13.4025 21.5706 13.2986 21.6617C12.9536 21.9656 12.5497 22.215 12.1053 22.3878C13.2408 22.5617 14.4625 22.5811 15.7003 22.34C15.9975 22.2817 15.1292 21.9628 13.6303 21.3745Z" fill="#177700"/>
<path d="M20.9358 1.08443C20.517 0.0322078 18.5014 -0.737237 17.6431 1.15165C17.447 1.58387 17.1903 1.98443 16.9314 2.23943C16.6725 2.49443 16.3886 3.09165 16.9608 3.35721C17.5331 3.62276 17.8064 3.0211 17.8342 2.65832C17.8614 2.2961 17.9953 1.71554 18.1997 1.27443C18.4875 0.65443 19.6664 0.137763 20.3014 1.10221C20.3014 1.10221 19.8292 1.14165 19.717 1.6911C19.5553 2.48387 20.7553 2.87554 20.9853 1.61554C20.9853 1.61554 21.7525 1.81721 22.1786 1.97999C22.6164 2.14832 22.437 1.43721 20.9358 1.08443Z" fill="#719E02"/>
<path d="M20.3014 1.10278C20.3014 1.10278 19.8292 1.14223 19.717 1.69167C19.5553 2.48445 20.7553 2.87612 20.9853 1.61612C20.9853 1.61612 21.7525 1.81778 22.1786 1.98056C22.362 2.05056 22.437 1.96667 22.3525 1.81945C22.3525 1.81945 21.5514 1.33223 20.6958 1.30556C20.8114 1.85945 20.3842 2.24056 20.1142 2.05667C20.6103 1.54223 20.3014 1.10278 20.3014 1.10278Z" fill="#508902"/>
<path d="M16.9314 2.23944C16.6725 2.49389 16.3886 3.09167 16.9608 3.35722C17.5331 3.62278 17.8064 3.02111 17.8342 2.65833C17.8614 2.29611 17.9953 1.71556 18.1997 1.27444C18.1997 1.27444 17.727 2.25167 17.3814 2.395C17.0364 2.53833 16.9314 2.23944 16.9314 2.23944Z" fill="#508902"/>
<path d="M20.2225 1.93779C20.2186 1.93612 20.2147 1.93334 20.2108 1.93001C20.1914 1.91279 20.1897 1.88334 20.207 1.8639C20.3258 1.73112 20.3758 1.57834 20.3553 1.4089C20.3397 1.28001 20.2875 1.18945 20.287 1.1889C20.2742 1.16668 20.2814 1.13779 20.3036 1.12501C20.3258 1.11223 20.3542 1.11945 20.3675 1.14168C20.3703 1.14612 20.4292 1.24723 20.4475 1.39445C20.4647 1.53112 20.4492 1.7339 20.2764 1.92668C20.2631 1.94223 20.2408 1.94612 20.2225 1.93779Z" fill="#226702"/>
<path d="M8.08472 22.4633C7.92361 22.3883 7.75806 22.3083 7.59028 22.2228C7.62639 22.9494 7.45361 23.4506 7.45361 23.4506L7.73084 23.5794C7.73084 23.5794 8.01028 23.1283 8.59139 22.6883C8.41806 22.6156 8.25084 22.5411 8.08972 22.4661L8.08472 22.4633Z" fill="#126B00"/>
<path d="M3.6936 19.1811C3.70305 19.6717 3.89194 20.1683 4.42416 20.7861C5.08749 21.5556 5.59416 22.3578 6.18305 22.7872L7.26471 23.3628C7.26471 23.3628 6.8586 22.7872 6.68027 22.0228C6.6486 21.8867 6.63527 21.7783 6.63083 21.6872C6.04527 21.3306 5.45194 20.9089 4.88971 20.4167C4.46749 20.0461 4.06305 19.6356 3.6936 19.1811Z" fill="#126B00"/>
<path d="M9.33251 23.2544C8.63306 23.6111 7.9314 23.6722 7.9314 23.6722L9.06862 24.1272C9.77695 24.3006 10.717 24.17 11.7325 24.18C12.5575 24.1883 13.0608 24.0083 13.4436 23.6922C12.0764 23.7256 10.7653 23.4567 9.62084 23.0756C9.54862 23.1311 9.45695 23.1911 9.33251 23.2544Z" fill="#126B00"/>
<path d="M10.4631 17.3489C10.4625 17.3489 10.4619 17.3483 10.4614 17.3483C10.4608 17.3483 10.4603 17.3478 10.4597 17.3478L10.4631 17.3489Z" fill="#126B00"/>
<path d="M9.06472 3.04946C8.79472 2.76279 6.53138 3.43224 4.47194 6.48279C2.37916 9.58335 2.06805 13.0567 2.16083 14.2883C2.25361 15.52 2.14472 12.8656 3.60305 9.77168C4.98972 6.83001 6.05416 5.60501 8.00249 4.3639C9.56638 3.36724 9.06472 3.04946 9.06472 3.04946Z" fill="#B8ED35"/>
<path d="M9.87638 3.04332C10.0464 3.04332 10.1842 2.90552 10.1842 2.73554C10.1842 2.56556 10.0464 2.42776 9.87638 2.42776C9.7064 2.42776 9.5686 2.56556 9.5686 2.73554C9.5686 2.90552 9.7064 3.04332 9.87638 3.04332Z" fill="#B8ED35"/>
<path d="M22.312 9.20167C22.7053 9.22278 23.6542 11.3844 22.652 14.9256C21.6331 18.525 19.1803 21.0033 18.1792 21.7272C17.1786 22.4506 19.277 20.8211 20.6997 17.7111C22.0525 14.7539 22.302 13.15 21.9936 10.8611C21.7458 9.02389 22.312 9.20167 22.312 9.20167Z" fill="#B8ED35"/>
<path d="M22.0286 8.68666C22.1986 8.68666 22.3364 8.54886 22.3364 8.37888C22.3364 8.2089 22.1986 8.07111 22.0286 8.07111C21.8586 8.07111 21.7208 8.2089 21.7208 8.37888C21.7208 8.54886 21.8586 8.68666 22.0286 8.68666Z" fill="#B8ED35"/>
<path d="M16.5197 9.20223C16.802 7.9339 16.4642 6.74168 16.7753 5.92723C17.0192 5.2889 17.1147 4.48168 17.052 3.84223C17.0264 3.8289 17.002 3.81723 16.9797 3.80612L16.6058 3.63223C16.5842 3.62223 16.5597 3.61112 16.5331 3.59946C16.0036 3.9639 15.4481 4.55835 15.1175 5.15668C14.6958 5.91946 13.567 6.43057 12.7803 7.46501C12.2531 8.15779 11.8447 8.9739 11.6047 9.64668C11.6375 9.67057 11.6703 9.69446 11.7031 9.71835C12.3125 10.1572 12.9614 10.5067 13.5192 10.7661L13.522 10.7672C14.112 11.0411 14.8414 11.3256 15.6125 11.5061C15.9708 10.8889 16.3308 10.0511 16.5197 9.20223Z" fill="#299E10"/>
<path d="M12.8553 4.31333C13.7119 3.98555 14.3203 4.05444 14.9175 3.73388C15.2203 3.57111 15.5103 3.425 15.8158 3.32944C14.2436 2.81388 11.0958 2.21666 9.90749 4.77555C9.64416 5.34222 9.53583 5.87333 9.54583 6.36833C9.93083 6.03444 10.3697 5.75888 10.8203 5.52333C11.7503 5.03833 11.9986 4.64111 12.8553 4.31333Z" fill="#299E10"/>
<path d="M20.0581 6.28944C19.9142 6.09944 19.8153 5.98999 19.8153 5.98999C19.8153 5.98999 19.7581 5.91944 19.6692 5.80333C19.0581 5.11777 18.3042 4.57777 17.7231 4.22055C17.8458 4.51333 17.9203 4.82777 17.9908 5.16166C18.1314 5.82444 18.5764 6.24499 18.8786 7.11111C19.1808 7.97722 19.0381 8.42333 19.2664 9.44722C19.3758 9.93722 19.4481 10.4439 19.4436 10.9467C19.8247 10.6372 20.1603 10.2178 20.4275 9.66166C21.0481 8.37333 20.7203 7.22444 20.0581 6.28944Z" fill="#299E10"/>
<path d="M20.8603 1.11C20.7486 0.888331 20.3003 0.261109 19.5319 0.0955533C18.7636 -0.0705578 18.1969 0.375553 17.8697 0.926665C17.5425 1.47778 17.4581 1.76611 17.2697 1.995C17.0814 2.22389 17.3575 2.12278 17.7125 1.54611C18.0675 0.969442 18.2497 0.454442 18.8919 0.261664C19.5342 0.0688867 20.2842 0.411664 20.7264 1.10278C20.8175 1.23778 20.9042 1.19722 20.8603 1.11Z" fill="#85C800"/>
</g>
<defs>
<clipPath id="clip0_280_27789">
<rect width="25" height="25" fill="white"/>
</clipPath>
</defs>
</svg>
