<svg width="21" height="21" viewBox="0 0 21 21" fill="none" xmlns="http://www.w3.org/2000/svg">
<path d="M5.69064 17.0257H6.01581V20.0156C6.01581 20.1967 6.16249 20.3438 6.34394 20.3438C6.52539 20.3438 6.67206 20.1967 6.67206 20.0156V17.0257H6.99756C8.5811 17.0257 9.86505 15.7418 9.86505 14.1583V13.5046H9.21142C8.10794 13.5046 7.15145 14.1291 6.67206 15.0429V13.9181H6.99756C8.5811 13.9181 9.86505 12.6341 9.86505 11.0506V10.397H9.21142C8.10794 10.397 7.15145 11.0214 6.67206 11.9352V10.8104H6.99756C8.5811 10.8104 9.86505 9.52645 9.86505 7.94292V7.2893H9.21142C8.10794 7.2893 7.15145 7.91372 6.67206 8.82755V7.70273H6.99756C8.5811 7.70273 9.86505 6.41878 9.86505 4.83525V4.18162H9.21142C8.40916 4.18162 7.68499 4.51172 7.16458 5.04262C7.76997 3.843 7.57342 2.34216 6.57166 1.34006L6.34427 1.11267L6.11688 1.34006C5.11478 2.34216 4.91856 3.84267 5.52395 5.04262C5.00355 4.51172 4.27938 4.18162 3.47711 4.18162H2.82349V4.83525C2.82349 6.41878 4.10711 7.70273 5.69097 7.70273H6.01614V8.82689C5.53675 7.91339 4.58027 7.2893 3.47711 7.2893H2.82349V7.94292C2.82349 9.52645 4.10711 10.8104 5.69097 10.8104H6.01614V11.9346C5.53675 11.0211 4.58027 10.397 3.47711 10.397H2.82349V11.0506C2.82349 12.6341 4.10711 13.9181 5.69097 13.9181H6.01614V15.0422C5.53675 14.1287 4.58027 13.5046 3.47711 13.5046H2.82349V14.1583C2.82349 15.7418 4.10678 17.0257 5.69064 17.0257Z" fill="#25314C"/>
<path d="M15.3093 7.70273C16.8929 7.70273 18.1768 6.41878 18.1768 4.83525V4.18162H17.5232C16.7213 4.18162 15.9968 4.51172 15.4763 5.04262C16.0817 3.843 15.8852 2.34216 14.8834 1.34006L14.656 1.11267L14.4286 1.34006C13.4266 2.34216 13.2303 3.84267 13.8357 5.04262C13.3153 4.51172 12.5911 4.18162 11.7889 4.18162H11.1353V4.83525C11.1353 6.41878 12.4189 7.70273 14.0027 7.70273H14.3282V8.82755C13.8488 7.91372 12.8924 7.2893 11.7889 7.2893H11.1353V7.94292C11.1353 9.52645 12.4189 10.8104 14.0027 10.8104H14.3282V11.9352C13.8488 11.0214 12.8924 10.397 11.7889 10.397H11.1353V11.0506C11.1353 12.6341 12.4189 13.9181 14.0027 13.9181H14.3282V15.0429C13.8488 14.1291 12.8924 13.5046 11.7889 13.5046H11.1353V14.1583C11.1353 15.7418 12.4189 17.0257 14.0027 17.0257H14.3282V20.0156C14.3282 20.1967 14.4749 20.3438 14.6564 20.3438C14.8378 20.3438 14.9845 20.1967 14.9845 20.0156V17.0257H15.3097C16.8932 17.0257 18.1771 15.7418 18.1771 14.1583V13.5046H17.5235C16.42 13.5046 15.4639 14.1287 14.9845 15.0422V13.9181H15.3097C16.8932 13.9181 18.1771 12.6341 18.1771 11.0506V10.397H17.5235C16.42 10.397 15.4639 11.0211 14.9845 11.9346V10.8104H15.3097C16.8932 10.8104 18.1771 9.52645 18.1771 7.94292V7.2893H17.5235C16.42 7.2893 15.4639 7.91339 14.9845 8.82689V7.70273H15.3093Z" fill="#25314C"/>
</svg>
